<svg width="1440" height="205" viewBox="0 0 1440 205" fill="none" xmlns="http://www.w3.org/2000/svg">
<path d="M103.84 172.19H92.608V165.086C89.632 170.078 82.528 173.246 74.08 173.246C64.864 173.246 56.8 169.406 51.04 162.494C45.76 156.254 42.976 147.614 42.976 138.014C42.976 128.318 45.952 119.486 51.328 112.958C57.184 106.046 65.536 102.206 74.848 102.206C88.384 102.206 98.368 109.31 102.688 121.982L90.976 125.918C88.96 117.758 83.104 113.054 74.944 113.054C69.088 113.054 64.384 115.358 60.736 119.966C57.088 124.478 55.264 130.43 55.264 137.822C55.264 145.214 57.088 151.262 60.736 155.87C64.384 160.382 69.184 162.686 75.136 162.686C84.832 162.686 91.648 155.87 92.032 145.79H73.888V135.038H103.84V172.19ZM109.75 172.19L135.862 103.262H149.782L175.894 172.19H163.51L157.558 156.446H127.798L121.942 172.19H109.75ZM153.526 145.694L142.582 116.894L131.83 145.694H153.526ZM227.157 172.19H182.421V103.262H194.709V161.438H227.157V172.19ZM278.884 172.19H234.148V103.262H246.436V161.438H278.884V172.19ZM285.876 172.19V103.262H332.532V114.014H297.972V131.294H327.06V142.046H297.972V161.438H332.532V172.19H285.876ZM365.34 145.502H354.204V172.19H341.916V103.262H369.468C385.308 103.262 394.428 110.942 394.428 124.382C394.428 135.038 388.764 142.142 378.396 144.542L396.156 172.19H382.14L365.34 145.502ZM354.204 113.822V134.942H368.796C377.532 134.942 382.332 131.198 382.332 124.382C382.332 117.47 377.628 113.822 368.796 113.822H354.204ZM407.115 103.262L424.971 132.542L442.827 103.262H455.883L431.019 143.774V172.19H418.731V143.774L393.771 103.262H407.115Z" fill="black"/>
<path d="M1299.81 130.19C1299.81 102.576 1277.42 80.19 1249.81 80.19C1222.2 80.19 1199.81 102.576 1199.81 130.19C1199.81 157.804 1222.2 180.19 1249.81 180.19C1277.42 180.19 1299.81 157.804 1299.81 130.19Z" stroke="black" stroke-width="2" stroke-miterlimit="10"/>
<g clip-path="url(#clip0_790_2503)">
<path d="M1399 179.19L1300.52 80.71" stroke="black" stroke-width="2" stroke-miterlimit="10"/>
<path d="M1399 80.71V179.19H1300.52" stroke="black" stroke-width="2" stroke-miterlimit="10"/>
</g>
<defs>
<clipPath id="clip0_790_2503">
<rect width="100.19" height="100.19" fill="white" transform="translate(1299.81 80)"/>
</clipPath>
</defs>
</svg>
