<svg width="350" height="18" viewBox="0 0 350 18" fill="none" xmlns="http://www.w3.org/2000/svg">
<path d="M107.736 4.532C108.84 5.62 109.432 7.108 109.432 8.756C109.432 10.372 108.824 11.876 107.736 12.964C106.648 14.068 105.144 14.676 103.528 14.676C101.912 14.676 100.408 14.068 99.304 12.98C98.216 11.892 97.608 10.404 97.608 8.756C97.608 7.108 98.216 5.62 99.304 4.532C100.392 3.444 101.912 2.836 103.528 2.836C105.144 2.836 106.648 3.444 107.736 4.532ZM107 12.244C107.896 11.332 108.392 10.1 108.392 8.756C108.392 7.412 107.896 6.164 107 5.268C106.104 4.372 104.872 3.86 103.528 3.86C102.184 3.86 100.952 4.356 100.04 5.268C99.144 6.164 98.648 7.396 98.648 8.756C98.648 10.1 99.144 11.332 100.056 12.244C100.952 13.14 102.184 13.652 103.528 13.652C104.856 13.652 106.088 13.14 107 12.244ZM103.608 12.1C102.696 12.1 101.944 11.796 101.352 11.172C100.776 10.548 100.488 9.748 100.488 8.74C100.488 7.732 100.776 6.932 101.352 6.308C101.944 5.684 102.696 5.38 103.608 5.38C104.968 5.38 105.928 6.052 106.36 7.284L104.792 7.844C104.664 7.22 104.2 6.852 103.608 6.852C102.728 6.852 102.184 7.588 102.184 8.74C102.184 9.892 102.728 10.628 103.608 10.628C104.232 10.628 104.664 10.26 104.792 9.636L106.36 10.196C105.928 11.428 104.968 12.1 103.608 12.1ZM113.936 14.5V12.836L116.816 10.468C117.408 9.988 117.824 9.636 118.064 9.428C118.304 9.204 118.528 8.996 118.704 8.804C119.456 8.02 119.792 7.316 119.792 6.612C119.792 5.396 119.008 4.58 117.84 4.58C116.688 4.58 115.856 5.46 115.856 6.66C115.856 7.028 115.92 7.412 116.048 7.748H114.144C114 7.3 113.936 6.996 113.936 6.548C113.936 5.508 114.352 4.564 115.12 3.86C115.84 3.204 116.848 2.836 117.888 2.836C119.072 2.836 120.016 3.172 120.736 3.844C121.456 4.5 121.824 5.38 121.824 6.484C121.824 7.428 121.504 8.292 120.816 9.172C120.352 9.764 119.744 10.34 118.672 11.188L116.752 12.708H121.968V14.5H113.936ZM127.337 14.676C125.945 14.676 124.857 14.148 124.041 13.076C123.225 12.004 122.825 10.564 122.825 8.756C122.825 6.948 123.225 5.524 124.041 4.452C124.857 3.38 125.945 2.836 127.337 2.836C128.729 2.836 129.817 3.38 130.633 4.452C131.449 5.524 131.849 6.948 131.849 8.756C131.849 10.564 131.449 12.004 130.633 13.076C129.817 14.148 128.729 14.676 127.337 14.676ZM127.337 4.612C125.753 4.612 124.873 6.132 124.873 8.756C124.873 11.38 125.753 12.9 127.337 12.9C128.921 12.9 129.801 11.38 129.801 8.756C129.801 6.132 128.921 4.612 127.337 4.612ZM132.826 14.5V12.836L135.706 10.468C136.298 9.988 136.714 9.636 136.954 9.428C137.194 9.204 137.418 8.996 137.594 8.804C138.346 8.02 138.682 7.316 138.682 6.612C138.682 5.396 137.898 4.58 136.73 4.58C135.578 4.58 134.746 5.46 134.746 6.66C134.746 7.028 134.81 7.412 134.938 7.748H133.034C132.89 7.3 132.826 6.996 132.826 6.548C132.826 5.508 133.242 4.564 134.01 3.86C134.73 3.204 135.738 2.836 136.778 2.836C137.962 2.836 138.906 3.172 139.626 3.844C140.346 4.5 140.714 5.38 140.714 6.484C140.714 7.428 140.394 8.292 139.706 9.172C139.242 9.764 138.634 10.34 137.562 11.188L135.642 12.708H140.858V14.5H132.826ZM145.86 8.5C145.108 8.5 144.452 8.82 144.068 9.348L142.212 9.092L142.724 3.012H149.188V4.804H144.292L144.036 7.62C144.564 7.124 145.316 6.836 146.132 6.836C147.236 6.836 148.18 7.236 148.868 7.956C149.508 8.644 149.876 9.62 149.876 10.708C149.876 11.812 149.444 12.82 148.66 13.572C147.908 14.276 146.884 14.676 145.748 14.676C143.444 14.676 141.86 13.396 141.492 11.22L143.46 10.868C143.652 12.164 144.532 12.98 145.748 12.98C146.372 12.98 146.9 12.772 147.316 12.356C147.748 11.924 147.956 11.396 147.956 10.772C147.956 9.444 147.092 8.5 145.86 8.5ZM153.816 14.5L158.168 3.012H160.488L164.84 14.5H162.776L161.784 11.876H156.824L155.848 14.5H153.816ZM161.112 10.084L159.288 5.284L157.496 10.084H161.112ZM169.992 10.052H168.136V14.5H166.088V3.012H170.68C173.32 3.012 174.84 4.292 174.84 6.532C174.84 8.308 173.896 9.492 172.168 9.892L175.128 14.5H172.792L169.992 10.052ZM168.136 4.772V8.292H170.568C172.024 8.292 172.824 7.668 172.824 6.532C172.824 5.38 172.04 4.772 170.568 4.772H168.136ZM184.977 3.012V4.804H181.281V14.5H179.233V4.804H175.537V3.012H184.977ZM190.211 10.052H188.355V14.5H186.307V3.012H190.899C193.539 3.012 195.059 4.292 195.059 6.532C195.059 8.308 194.115 9.492 192.387 9.892L195.347 14.5H193.011L190.211 10.052ZM188.355 4.772V8.292H190.787C192.243 8.292 193.043 7.668 193.043 6.532C193.043 5.38 192.259 4.772 190.787 4.772H188.355ZM195.754 14.5L200.106 3.012H202.426L206.778 14.5H204.714L203.722 11.876H198.762L197.786 14.5H195.754ZM203.05 10.084L201.226 5.284L199.434 10.084H203.05ZM210.21 14.5H207.89V12.18H210.21V14.5ZM214.301 14.5L218.653 3.012H220.973L225.325 14.5H223.261L222.269 11.876H217.309L216.333 14.5H214.301ZM221.597 10.084L219.773 5.284L217.981 10.084H221.597ZM226.336 3.012H228.256V14.5H226.336V3.012ZM230.274 3.012H232.194V14.5H230.274V3.012ZM241.732 6.052C241.908 6.052 242.068 6.068 242.276 6.084V8.004C242.02 7.956 241.828 7.956 241.572 7.956C240.292 7.956 239.428 8.804 239.428 10.084V14.5H237.508V6.1H239.428V7.348C239.812 6.564 240.692 6.052 241.732 6.052ZM245.554 4.98H243.57V3.012H245.554V4.98ZM243.602 6.1H245.522V14.5H243.602V6.1ZM255.011 6.1V13.652C255.011 14.852 254.643 15.796 253.891 16.5C253.155 17.204 252.163 17.556 250.915 17.556C248.931 17.556 247.603 16.708 247.091 15.108L248.883 14.468C249.139 15.444 249.891 16.004 250.915 16.004C252.323 16.004 253.091 15.252 253.091 13.828V13.236C252.595 13.892 251.699 14.292 250.723 14.292C249.619 14.292 248.643 13.86 247.987 13.028C247.363 12.276 247.043 11.252 247.043 10.116C247.043 8.98 247.363 7.956 247.987 7.204C248.643 6.372 249.619 5.94 250.723 5.94C251.699 5.94 252.595 6.356 253.091 6.996V6.1H255.011ZM253.123 10.228V10.036C253.123 8.548 252.323 7.62 251.091 7.62C249.763 7.62 248.979 8.532 248.979 10.116C248.979 11.668 249.763 12.612 251.091 12.612C252.323 12.612 253.123 11.7 253.123 10.228ZM258.959 14.5H257.039V3.012H258.959V6.996C259.551 6.308 260.335 5.94 261.279 5.94C263.007 5.94 264.095 7.124 264.095 8.964V14.5H262.175V9.524C262.175 8.372 261.663 7.732 260.703 7.732C259.727 7.732 258.959 8.484 258.959 9.572V14.5ZM268.695 14.596C266.919 14.596 266.231 13.94 266.231 12.388V7.732H265.063V6.1H266.231V3.636H268.119V6.1H269.879V7.732H268.119V12.084C268.119 12.676 268.343 12.916 269.239 12.916C269.495 12.916 269.655 12.916 270.023 12.868V14.484C269.639 14.548 269.143 14.596 268.695 14.596ZM274.437 14.676C272.789 14.676 271.301 13.988 270.581 12.9L272.021 11.748C272.517 12.564 273.493 13.108 274.453 13.108C275.413 13.108 276.021 12.724 276.021 12.068C276.021 11.668 275.813 11.444 275.221 11.268C275.093 11.22 274.677 11.14 273.989 10.996C272.901 10.756 272.437 10.612 272.037 10.356C271.445 9.956 271.141 9.38 271.141 8.596C271.141 7.812 271.445 7.188 272.053 6.692C272.677 6.196 273.461 5.94 274.421 5.94C275.845 5.94 277.189 6.564 277.813 7.524L276.517 8.692C276.021 7.94 275.221 7.508 274.309 7.508C273.525 7.508 273.013 7.86 273.013 8.42C273.013 8.756 273.205 8.948 273.653 9.124C273.829 9.172 273.973 9.22 274.677 9.364C275.365 9.508 275.845 9.636 276.117 9.732C276.389 9.812 276.613 9.908 276.821 10.02C277.541 10.42 277.893 11.044 277.893 11.892C277.893 12.708 277.557 13.364 276.901 13.892C276.245 14.42 275.429 14.676 274.437 14.676ZM286.888 6.052C287.064 6.052 287.224 6.068 287.432 6.084V8.004C287.176 7.956 286.984 7.956 286.728 7.956C285.448 7.956 284.584 8.804 284.584 10.084V14.5H282.664V6.1H284.584V7.348C284.968 6.564 285.848 6.052 286.888 6.052ZM291.904 14.676C290.704 14.676 289.664 14.228 288.912 13.412C288.208 12.628 287.824 11.54 287.824 10.308C287.824 9.14 288.208 8.036 288.896 7.252C289.648 6.404 290.672 5.94 291.824 5.94C292.96 5.94 293.872 6.324 294.544 7.092C295.216 7.844 295.552 8.852 295.552 10.084V10.724H289.664C289.808 12.148 290.672 13.044 291.904 13.044C292.864 13.044 293.6 12.532 293.856 11.7L295.504 12.324C294.912 13.796 293.568 14.676 291.904 14.676ZM291.808 7.556C290.784 7.556 290.032 8.18 289.76 9.284H293.616C293.6 8.244 292.912 7.556 291.808 7.556ZM299.968 14.676C298.32 14.676 296.832 13.988 296.112 12.9L297.552 11.748C298.048 12.564 299.024 13.108 299.984 13.108C300.944 13.108 301.552 12.724 301.552 12.068C301.552 11.668 301.344 11.444 300.752 11.268C300.624 11.22 300.208 11.14 299.52 10.996C298.432 10.756 297.968 10.612 297.568 10.356C296.976 9.956 296.672 9.38 296.672 8.596C296.672 7.812 296.976 7.188 297.584 6.692C298.208 6.196 298.992 5.94 299.952 5.94C301.376 5.94 302.72 6.564 303.344 7.524L302.048 8.692C301.552 7.94 300.752 7.508 299.84 7.508C299.056 7.508 298.544 7.86 298.544 8.42C298.544 8.756 298.736 8.948 299.184 9.124C299.36 9.172 299.504 9.22 300.208 9.364C300.896 9.508 301.376 9.636 301.648 9.732C301.92 9.812 302.144 9.908 302.352 10.02C303.072 10.42 303.424 11.044 303.424 11.892C303.424 12.708 303.088 13.364 302.432 13.892C301.776 14.42 300.96 14.676 299.968 14.676ZM308.451 14.676C307.251 14.676 306.211 14.228 305.459 13.412C304.755 12.628 304.371 11.54 304.371 10.308C304.371 9.14 304.755 8.036 305.443 7.252C306.195 6.404 307.219 5.94 308.371 5.94C309.507 5.94 310.419 6.324 311.091 7.092C311.763 7.844 312.099 8.852 312.099 10.084V10.724H306.211C306.355 12.148 307.219 13.044 308.451 13.044C309.411 13.044 310.147 12.532 310.403 11.7L312.051 12.324C311.459 13.796 310.115 14.676 308.451 14.676ZM308.355 7.556C307.331 7.556 306.579 8.18 306.307 9.284H310.163C310.147 8.244 309.459 7.556 308.355 7.556ZM317.763 6.052C317.939 6.052 318.099 6.068 318.307 6.084V8.004C318.051 7.956 317.859 7.956 317.603 7.956C316.323 7.956 315.459 8.804 315.459 10.084V14.5H313.539V6.1H315.459V7.348C315.843 6.564 316.723 6.052 317.763 6.052ZM326.893 6.1L323.821 14.5H321.885L318.813 6.1H320.829L322.877 12.196L324.909 6.1H326.893ZM331.279 14.676C330.079 14.676 329.039 14.228 328.287 13.412C327.583 12.628 327.199 11.54 327.199 10.308C327.199 9.14 327.583 8.036 328.271 7.252C329.023 6.404 330.047 5.94 331.199 5.94C332.335 5.94 333.247 6.324 333.919 7.092C334.591 7.844 334.927 8.852 334.927 10.084V10.724H329.039C329.183 12.148 330.047 13.044 331.279 13.044C332.239 13.044 332.975 12.532 333.231 11.7L334.879 12.324C334.287 13.796 332.943 14.676 331.279 14.676ZM331.183 7.556C330.159 7.556 329.407 8.18 329.135 9.284H332.991C332.975 8.244 332.287 7.556 331.183 7.556ZM339.535 14.676C338.399 14.676 337.423 14.212 336.767 13.332C336.175 12.548 335.839 11.476 335.839 10.308C335.839 9.14 336.175 8.068 336.767 7.284C337.423 6.404 338.399 5.94 339.535 5.94C340.543 5.94 341.375 6.308 341.951 6.996V3.012H343.871V14.5H341.951V13.62C341.375 14.308 340.543 14.676 339.535 14.676ZM341.999 10.564V10.068C341.999 8.58 341.183 7.62 339.919 7.62C338.575 7.62 337.775 8.644 337.775 10.308C337.775 11.972 338.575 12.996 339.919 12.996C341.151 12.996 341.999 12.036 341.999 10.564ZM347.835 14.5H345.515V12.18H347.835V14.5Z" fill="black"/>
</svg>
