<svg width="350" height="17" viewBox="0 0 350 17" fill="none" xmlns="http://www.w3.org/2000/svg">
<path d="M0.16 14.5L4.512 3.012H6.832L11.184 14.5H9.12L8.128 11.876H3.168L2.192 14.5H0.16ZM7.456 10.084L5.632 5.284L3.84 10.084H7.456ZM16.3358 10.052H14.4798V14.5H12.4318V3.012H17.0238C19.6638 3.012 21.1838 4.292 21.1838 6.532C21.1838 8.308 20.2398 9.492 18.5118 9.892L21.4718 14.5H19.1358L16.3358 10.052ZM14.4798 4.772V8.292H16.9118C18.3678 8.292 19.1678 7.668 19.1678 6.532C19.1678 5.38 18.3838 4.772 16.9118 4.772H14.4798ZM31.3206 3.012V4.804H27.6246V14.5H25.5766V4.804H21.8806V3.012H31.3206ZM36.5545 10.052H34.6985V14.5H32.6505V3.012H37.2425C39.8825 3.012 41.4025 4.292 41.4025 6.532C41.4025 8.308 40.4585 9.492 38.7305 9.892L41.6905 14.5H39.3545L36.5545 10.052ZM34.6985 4.772V8.292H37.1305C38.5865 8.292 39.3865 7.668 39.3865 6.532C39.3865 5.38 38.6025 4.772 37.1305 4.772H34.6985ZM42.0975 14.5L46.4495 3.012H48.7695L53.1215 14.5H51.0575L50.0655 11.876H45.1055L44.1295 14.5H42.0975ZM49.3935 10.084L47.5695 5.284L45.7775 10.084H49.3935ZM57.7606 10.692H53.2806V8.98H57.7606V10.692ZM69.2025 14.5H67.3305V13.316C66.8345 14.148 65.6505 14.676 64.2425 14.676C62.7065 14.676 61.3625 14.036 60.4025 12.884C59.5225 11.844 59.0585 10.404 59.0585 8.804C59.0585 7.188 59.5545 5.716 60.4505 4.628C61.4265 3.476 62.8185 2.836 64.3705 2.836C66.6265 2.836 68.2905 4.02 69.0105 6.132L67.0585 6.788C66.7225 5.428 65.7465 4.644 64.3865 4.644C63.4105 4.644 62.6265 5.028 62.0185 5.796C61.4105 6.548 61.1065 7.54 61.1065 8.772C61.1065 10.004 61.4105 11.012 62.0185 11.78C62.6265 12.532 63.4265 12.916 64.4185 12.916C66.0345 12.916 67.1705 11.78 67.2345 10.1H64.2105V8.308H69.2025V14.5ZM70.3475 14.5L74.6995 3.012H77.0195L81.3715 14.5H79.3075L78.3155 11.876H73.3555L72.3795 14.5H70.3475ZM77.6435 10.084L75.8195 5.284L74.0275 10.084H77.6435ZM90.0753 14.5H82.6193V3.012H84.6673V12.708H90.0753V14.5ZM98.8565 14.5H91.4005V3.012H93.4485V12.708H98.8565V14.5ZM100.182 14.5V3.012H107.958V4.804H102.198V7.684H107.046V9.476H102.198V12.708H107.958V14.5H100.182ZM113.586 10.052H111.73V14.5H109.682V3.012H114.274C116.914 3.012 118.434 4.292 118.434 6.532C118.434 8.308 117.49 9.492 115.762 9.892L118.722 14.5H116.386L113.586 10.052ZM111.73 4.772V8.292H114.162C115.618 8.292 116.418 7.668 116.418 6.532C116.418 5.38 115.634 4.772 114.162 4.772H111.73ZM120.708 3.012L123.684 7.892L126.66 3.012H128.836L124.692 9.764V14.5H122.644V9.764L118.484 3.012H120.708ZM130.038 14.5H127.718V12.18H130.038V14.5ZM133.187 5.972C132.675 6.692 132.419 7.668 132.419 8.756C132.419 9.844 132.675 10.82 133.187 11.54C133.763 12.388 134.643 12.868 135.651 12.868C136.979 12.868 137.955 12.068 138.323 10.708L140.243 11.364C139.539 13.476 137.891 14.676 135.651 14.676C134.099 14.676 132.707 14.036 131.747 12.884C130.851 11.812 130.371 10.372 130.371 8.756C130.371 7.14 130.851 5.7 131.747 4.628C132.707 3.476 134.099 2.836 135.651 2.836C137.891 2.836 139.539 4.036 140.243 6.148L138.323 6.804C137.955 5.444 136.979 4.644 135.651 4.644C134.643 4.644 133.763 5.124 133.187 5.972ZM142.451 12.916C141.539 11.844 141.043 10.404 141.043 8.756C141.043 7.108 141.539 5.668 142.451 4.596C143.427 3.46 144.803 2.836 146.387 2.836C147.971 2.836 149.347 3.46 150.323 4.596C151.235 5.668 151.731 7.108 151.731 8.756C151.731 10.404 151.235 11.844 150.323 12.916C149.347 14.052 147.971 14.676 146.387 14.676C144.803 14.676 143.427 14.052 142.451 12.916ZM146.387 12.868C147.363 12.868 148.163 12.484 148.771 11.732C149.379 10.98 149.683 9.988 149.683 8.756C149.683 7.524 149.379 6.532 148.771 5.78C148.163 5.028 147.363 4.644 146.387 4.644C145.411 4.644 144.611 5.028 144.003 5.78C143.395 6.532 143.091 7.524 143.091 8.756C143.091 9.988 143.395 10.98 144.003 11.732C144.611 12.484 145.411 12.868 146.387 12.868ZM162.906 5.62L159.898 14.5H158.234L155.226 5.62V14.5H153.322V3.012H156.138L159.098 11.812L162.058 3.012H164.81V14.5H162.906V5.62Z" fill="black"/>
</svg>
