<svg width="340" height="70" viewBox="0 0 340 70" fill="none" xmlns="http://www.w3.org/2000/svg">
<path d="M23.8117 0.5H48.5675L72.3791 69.5H50.6362L47.0541 58.5411H24.6586L21.0764 69.5H0L23.8117 0.5ZM35.8633 24.6153L30.3095 41.4293H41.417L35.8633 24.6153Z" fill="black"/>
<path d="M97.4959 48.3619V69.5H76.1279V0.5H106.896C124.501 0.5 134.845 9.43158 134.845 24.431C134.845 33.6603 130.416 41.0607 122.418 45.002L137.191 69.5H112.727L100.87 48.3619H97.4821H97.4959ZM97.4959 31.4486H105.771C110.95 31.4486 113.768 29.237 113.768 25.1115C113.768 20.9859 111.033 18.5758 105.771 18.5758H97.4959V31.4486Z" fill="black"/>
<path d="M199.795 18.7601H180.788V69.5H159.42V18.7601H140.412V0.5H199.795V18.7601Z" fill="black"/>
<path d="M339.986 69.5H318.91L315.327 58.5411H292.932L289.35 69.5H267.607L291.432 0.5H316.188L340 69.5H339.986ZM298.583 41.4435H309.69L304.137 24.6294L298.583 41.4435Z" fill="black"/>
<path d="M239.103 48.3619L227.245 69.5H202.781L217.554 45.002C209.557 41.0607 205.128 33.6603 205.128 24.431C205.128 9.44576 215.485 0.5 233.077 0.5H263.845V69.5H242.477V48.3619H239.089H239.103ZM242.49 18.5758H234.215C228.939 18.5758 226.218 20.8867 226.218 25.1115C226.218 29.3362 229.037 31.4486 234.215 31.4486H242.49V18.5758Z" fill="black"/>
</svg>
