<svg width="944" height="18" viewBox="0 0 944 18" fill="none" xmlns="http://www.w3.org/2000/svg">
<path d="M701.736 4.032C702.84 5.12 703.432 6.608 703.432 8.256C703.432 9.872 702.824 11.376 701.736 12.464C700.648 13.568 699.144 14.176 697.528 14.176C695.912 14.176 694.408 13.568 693.304 12.48C692.216 11.392 691.608 9.904 691.608 8.256C691.608 6.608 692.216 5.12 693.304 4.032C694.392 2.944 695.912 2.336 697.528 2.336C699.144 2.336 700.648 2.944 701.736 4.032ZM701 11.744C701.896 10.832 702.392 9.6 702.392 8.256C702.392 6.912 701.896 5.664 701 4.768C700.104 3.872 698.872 3.36 697.528 3.36C696.184 3.36 694.952 3.856 694.04 4.768C693.144 5.664 692.648 6.896 692.648 8.256C692.648 9.6 693.144 10.832 694.056 11.744C694.952 12.64 696.184 13.152 697.528 13.152C698.856 13.152 700.088 12.64 701 11.744ZM697.608 11.6C696.696 11.6 695.944 11.296 695.352 10.672C694.776 10.048 694.488 9.248 694.488 8.24C694.488 7.232 694.776 6.432 695.352 5.808C695.944 5.184 696.696 4.88 697.608 4.88C698.968 4.88 699.928 5.552 700.36 6.784L698.792 7.344C698.664 6.72 698.2 6.352 697.608 6.352C696.728 6.352 696.184 7.088 696.184 8.24C696.184 9.392 696.728 10.128 697.608 10.128C698.232 10.128 698.664 9.76 698.792 9.136L700.36 9.696C699.928 10.928 698.968 11.6 697.608 11.6ZM707.936 14V12.336L710.816 9.968C711.408 9.488 711.824 9.136 712.064 8.928C712.304 8.704 712.528 8.496 712.704 8.304C713.456 7.52 713.792 6.816 713.792 6.112C713.792 4.896 713.008 4.08 711.84 4.08C710.688 4.08 709.856 4.96 709.856 6.16C709.856 6.528 709.92 6.912 710.048 7.248H708.144C708 6.8 707.936 6.496 707.936 6.048C707.936 5.008 708.352 4.064 709.12 3.36C709.84 2.704 710.848 2.336 711.888 2.336C713.072 2.336 714.016 2.672 714.736 3.344C715.456 4 715.824 4.88 715.824 5.984C715.824 6.928 715.504 7.792 714.816 8.672C714.352 9.264 713.744 9.84 712.672 10.688L710.752 12.208H715.968V14H707.936ZM721.337 14.176C719.945 14.176 718.857 13.648 718.041 12.576C717.225 11.504 716.825 10.064 716.825 8.256C716.825 6.448 717.225 5.024 718.041 3.952C718.857 2.88 719.945 2.336 721.337 2.336C722.729 2.336 723.817 2.88 724.633 3.952C725.449 5.024 725.849 6.448 725.849 8.256C725.849 10.064 725.449 11.504 724.633 12.576C723.817 13.648 722.729 14.176 721.337 14.176ZM721.337 4.112C719.753 4.112 718.873 5.632 718.873 8.256C718.873 10.88 719.753 12.4 721.337 12.4C722.921 12.4 723.801 10.88 723.801 8.256C723.801 5.632 722.921 4.112 721.337 4.112ZM726.826 14V12.336L729.706 9.968C730.298 9.488 730.714 9.136 730.954 8.928C731.194 8.704 731.418 8.496 731.594 8.304C732.346 7.52 732.682 6.816 732.682 6.112C732.682 4.896 731.898 4.08 730.73 4.08C729.578 4.08 728.746 4.96 728.746 6.16C728.746 6.528 728.81 6.912 728.938 7.248H727.034C726.89 6.8 726.826 6.496 726.826 6.048C726.826 5.008 727.242 4.064 728.01 3.36C728.73 2.704 729.738 2.336 730.778 2.336C731.962 2.336 732.906 2.672 733.626 3.344C734.346 4 734.714 4.88 734.714 5.984C734.714 6.928 734.394 7.792 733.706 8.672C733.242 9.264 732.634 9.84 731.562 10.688L729.642 12.208H734.858V14H726.826ZM739.86 8C739.108 8 738.452 8.32 738.068 8.848L736.212 8.592L736.724 2.512H743.188V4.304H738.292L738.036 7.12C738.564 6.624 739.316 6.336 740.132 6.336C741.236 6.336 742.18 6.736 742.868 7.456C743.508 8.144 743.876 9.12 743.876 10.208C743.876 11.312 743.444 12.32 742.66 13.072C741.908 13.776 740.884 14.176 739.748 14.176C737.444 14.176 735.86 12.896 735.492 10.72L737.46 10.368C737.652 11.664 738.532 12.48 739.748 12.48C740.372 12.48 740.9 12.272 741.316 11.856C741.748 11.424 741.956 10.896 741.956 10.272C741.956 8.944 741.092 8 739.86 8ZM747.816 14L752.168 2.512H754.488L758.84 14H756.776L755.784 11.376H750.824L749.848 14H747.816ZM755.112 9.584L753.288 4.784L751.496 9.584H755.112ZM763.992 9.552H762.136V14H760.088V2.512H764.68C767.32 2.512 768.84 3.792 768.84 6.032C768.84 7.808 767.896 8.992 766.168 9.392L769.128 14H766.792L763.992 9.552ZM762.136 4.272V7.792H764.568C766.024 7.792 766.824 7.168 766.824 6.032C766.824 4.88 766.04 4.272 764.568 4.272H762.136ZM778.977 2.512V4.304H775.281V14H773.233V4.304H769.537V2.512H778.977ZM784.211 9.552H782.355V14H780.307V2.512H784.899C787.539 2.512 789.059 3.792 789.059 6.032C789.059 7.808 788.115 8.992 786.387 9.392L789.347 14H787.011L784.211 9.552ZM782.355 4.272V7.792H784.787C786.243 7.792 787.043 7.168 787.043 6.032C787.043 4.88 786.259 4.272 784.787 4.272H782.355ZM789.754 14L794.106 2.512H796.426L800.778 14H798.714L797.722 11.376H792.762L791.786 14H789.754ZM797.05 9.584L795.226 4.784L793.434 9.584H797.05ZM804.21 14H801.89V11.68H804.21V14ZM808.301 14L812.653 2.512H814.973L819.325 14H817.261L816.269 11.376H811.309L810.333 14H808.301ZM815.597 9.584L813.773 4.784L811.981 9.584H815.597ZM820.336 2.512H822.256V14H820.336V2.512ZM824.274 2.512H826.194V14H824.274V2.512ZM835.732 5.552C835.908 5.552 836.068 5.568 836.276 5.584V7.504C836.02 7.456 835.828 7.456 835.572 7.456C834.292 7.456 833.428 8.304 833.428 9.584V14H831.508V5.6H833.428V6.848C833.812 6.064 834.692 5.552 835.732 5.552ZM839.554 4.48H837.57V2.512H839.554V4.48ZM837.602 5.6H839.522V14H837.602V5.6ZM849.011 5.6V13.152C849.011 14.352 848.643 15.296 847.891 16C847.155 16.704 846.163 17.056 844.915 17.056C842.931 17.056 841.603 16.208 841.091 14.608L842.883 13.968C843.139 14.944 843.891 15.504 844.915 15.504C846.323 15.504 847.091 14.752 847.091 13.328V12.736C846.595 13.392 845.699 13.792 844.723 13.792C843.619 13.792 842.643 13.36 841.987 12.528C841.363 11.776 841.043 10.752 841.043 9.616C841.043 8.48 841.363 7.456 841.987 6.704C842.643 5.872 843.619 5.44 844.723 5.44C845.699 5.44 846.595 5.856 847.091 6.496V5.6H849.011ZM847.123 9.728V9.536C847.123 8.048 846.323 7.12 845.091 7.12C843.763 7.12 842.979 8.032 842.979 9.616C842.979 11.168 843.763 12.112 845.091 12.112C846.323 12.112 847.123 11.2 847.123 9.728ZM852.959 14H851.039V2.512H852.959V6.496C853.551 5.808 854.335 5.44 855.279 5.44C857.007 5.44 858.095 6.624 858.095 8.464V14H856.175V9.024C856.175 7.872 855.663 7.232 854.703 7.232C853.727 7.232 852.959 7.984 852.959 9.072V14ZM862.695 14.096C860.919 14.096 860.231 13.44 860.231 11.888V7.232H859.063V5.6H860.231V3.136H862.119V5.6H863.879V7.232H862.119V11.584C862.119 12.176 862.343 12.416 863.239 12.416C863.495 12.416 863.655 12.416 864.023 12.368V13.984C863.639 14.048 863.143 14.096 862.695 14.096ZM868.437 14.176C866.789 14.176 865.301 13.488 864.581 12.4L866.021 11.248C866.517 12.064 867.493 12.608 868.453 12.608C869.413 12.608 870.021 12.224 870.021 11.568C870.021 11.168 869.813 10.944 869.221 10.768C869.093 10.72 868.677 10.64 867.989 10.496C866.901 10.256 866.437 10.112 866.037 9.856C865.445 9.456 865.141 8.88 865.141 8.096C865.141 7.312 865.445 6.688 866.053 6.192C866.677 5.696 867.461 5.44 868.421 5.44C869.845 5.44 871.189 6.064 871.813 7.024L870.517 8.192C870.021 7.44 869.221 7.008 868.309 7.008C867.525 7.008 867.013 7.36 867.013 7.92C867.013 8.256 867.205 8.448 867.653 8.624C867.829 8.672 867.973 8.72 868.677 8.864C869.365 9.008 869.845 9.136 870.117 9.232C870.389 9.312 870.613 9.408 870.821 9.52C871.541 9.92 871.893 10.544 871.893 11.392C871.893 12.208 871.557 12.864 870.901 13.392C870.245 13.92 869.429 14.176 868.437 14.176ZM880.888 5.552C881.064 5.552 881.224 5.568 881.432 5.584V7.504C881.176 7.456 880.984 7.456 880.728 7.456C879.448 7.456 878.584 8.304 878.584 9.584V14H876.664V5.6H878.584V6.848C878.968 6.064 879.848 5.552 880.888 5.552ZM885.904 14.176C884.704 14.176 883.664 13.728 882.912 12.912C882.208 12.128 881.824 11.04 881.824 9.808C881.824 8.64 882.208 7.536 882.896 6.752C883.648 5.904 884.672 5.44 885.824 5.44C886.96 5.44 887.872 5.824 888.544 6.592C889.216 7.344 889.552 8.352 889.552 9.584V10.224H883.664C883.808 11.648 884.672 12.544 885.904 12.544C886.864 12.544 887.6 12.032 887.856 11.2L889.504 11.824C888.912 13.296 887.568 14.176 885.904 14.176ZM885.808 7.056C884.784 7.056 884.032 7.68 883.76 8.784H887.616C887.6 7.744 886.912 7.056 885.808 7.056ZM893.968 14.176C892.32 14.176 890.832 13.488 890.112 12.4L891.552 11.248C892.048 12.064 893.024 12.608 893.984 12.608C894.944 12.608 895.552 12.224 895.552 11.568C895.552 11.168 895.344 10.944 894.752 10.768C894.624 10.72 894.208 10.64 893.52 10.496C892.432 10.256 891.968 10.112 891.568 9.856C890.976 9.456 890.672 8.88 890.672 8.096C890.672 7.312 890.976 6.688 891.584 6.192C892.208 5.696 892.992 5.44 893.952 5.44C895.376 5.44 896.72 6.064 897.344 7.024L896.048 8.192C895.552 7.44 894.752 7.008 893.84 7.008C893.056 7.008 892.544 7.36 892.544 7.92C892.544 8.256 892.736 8.448 893.184 8.624C893.36 8.672 893.504 8.72 894.208 8.864C894.896 9.008 895.376 9.136 895.648 9.232C895.92 9.312 896.144 9.408 896.352 9.52C897.072 9.92 897.424 10.544 897.424 11.392C897.424 12.208 897.088 12.864 896.432 13.392C895.776 13.92 894.96 14.176 893.968 14.176ZM902.451 14.176C901.251 14.176 900.211 13.728 899.459 12.912C898.755 12.128 898.371 11.04 898.371 9.808C898.371 8.64 898.755 7.536 899.443 6.752C900.195 5.904 901.219 5.44 902.371 5.44C903.507 5.44 904.419 5.824 905.091 6.592C905.763 7.344 906.099 8.352 906.099 9.584V10.224H900.211C900.355 11.648 901.219 12.544 902.451 12.544C903.411 12.544 904.147 12.032 904.403 11.2L906.051 11.824C905.459 13.296 904.115 14.176 902.451 14.176ZM902.355 7.056C901.331 7.056 900.579 7.68 900.307 8.784H904.163C904.147 7.744 903.459 7.056 902.355 7.056ZM911.763 5.552C911.939 5.552 912.099 5.568 912.307 5.584V7.504C912.051 7.456 911.859 7.456 911.603 7.456C910.323 7.456 909.459 8.304 909.459 9.584V14H907.539V5.6H909.459V6.848C909.843 6.064 910.723 5.552 911.763 5.552ZM920.893 5.6L917.821 14H915.885L912.813 5.6H914.829L916.877 11.696L918.909 5.6H920.893ZM925.279 14.176C924.079 14.176 923.039 13.728 922.287 12.912C921.583 12.128 921.199 11.04 921.199 9.808C921.199 8.64 921.583 7.536 922.271 6.752C923.023 5.904 924.047 5.44 925.199 5.44C926.335 5.44 927.247 5.824 927.919 6.592C928.591 7.344 928.927 8.352 928.927 9.584V10.224H923.039C923.183 11.648 924.047 12.544 925.279 12.544C926.239 12.544 926.975 12.032 927.231 11.2L928.879 11.824C928.287 13.296 926.943 14.176 925.279 14.176ZM925.183 7.056C924.159 7.056 923.407 7.68 923.135 8.784H926.991C926.975 7.744 926.287 7.056 925.183 7.056ZM933.535 14.176C932.399 14.176 931.423 13.712 930.767 12.832C930.175 12.048 929.839 10.976 929.839 9.808C929.839 8.64 930.175 7.568 930.767 6.784C931.423 5.904 932.399 5.44 933.535 5.44C934.543 5.44 935.375 5.808 935.951 6.496V2.512H937.871V14H935.951V13.12C935.375 13.808 934.543 14.176 933.535 14.176ZM935.999 10.064V9.568C935.999 8.08 935.183 7.12 933.919 7.12C932.575 7.12 931.775 8.144 931.775 9.808C931.775 11.472 932.575 12.496 933.919 12.496C935.151 12.496 935.999 11.536 935.999 10.064ZM941.835 14H939.515V11.68H941.835V14Z" fill="black"/>
</svg>
