<svg width="944" height="16" viewBox="0 0 944 16" fill="none" xmlns="http://www.w3.org/2000/svg">
<path d="M0.16 14L4.512 2.512H6.832L11.184 14H9.12L8.128 11.376H3.168L2.192 14H0.16ZM7.456 9.584L5.632 4.784L3.84 9.584H7.456ZM16.3358 9.552H14.4798V14H12.4318V2.512H17.0238C19.6638 2.512 21.1838 3.792 21.1838 6.032C21.1838 7.808 20.2398 8.992 18.5118 9.392L21.4718 14H19.1358L16.3358 9.552ZM14.4798 4.272V7.792H16.9118C18.3678 7.792 19.1678 7.168 19.1678 6.032C19.1678 4.88 18.3838 4.272 16.9118 4.272H14.4798ZM31.3206 2.512V4.304H27.6246V14H25.5766V4.304H21.8806V2.512H31.3206ZM36.5545 9.552H34.6985V14H32.6505V2.512H37.2425C39.8825 2.512 41.4025 3.792 41.4025 6.032C41.4025 7.808 40.4585 8.992 38.7305 9.392L41.6905 14H39.3545L36.5545 9.552ZM34.6985 4.272V7.792H37.1305C38.5865 7.792 39.3865 7.168 39.3865 6.032C39.3865 4.88 38.6025 4.272 37.1305 4.272H34.6985ZM42.0975 14L46.4495 2.512H48.7695L53.1215 14H51.0575L50.0655 11.376H45.1055L44.1295 14H42.0975ZM49.3935 9.584L47.5695 4.784L45.7775 9.584H49.3935ZM57.7606 10.192H53.2806V8.48H57.7606V10.192ZM69.2025 14H67.3305V12.816C66.8345 13.648 65.6505 14.176 64.2425 14.176C62.7065 14.176 61.3625 13.536 60.4025 12.384C59.5225 11.344 59.0585 9.904 59.0585 8.304C59.0585 6.688 59.5545 5.216 60.4505 4.128C61.4265 2.976 62.8185 2.336 64.3705 2.336C66.6265 2.336 68.2905 3.52 69.0105 5.632L67.0585 6.288C66.7225 4.928 65.7465 4.144 64.3865 4.144C63.4105 4.144 62.6265 4.528 62.0185 5.296C61.4105 6.048 61.1065 7.04 61.1065 8.272C61.1065 9.504 61.4105 10.512 62.0185 11.28C62.6265 12.032 63.4265 12.416 64.4185 12.416C66.0345 12.416 67.1705 11.28 67.2345 9.6H64.2105V7.808H69.2025V14ZM70.3475 14L74.6995 2.512H77.0195L81.3715 14H79.3075L78.3155 11.376H73.3555L72.3795 14H70.3475ZM77.6435 9.584L75.8195 4.784L74.0275 9.584H77.6435ZM90.0753 14H82.6193V2.512H84.6673V12.208H90.0753V14ZM98.8565 14H91.4005V2.512H93.4485V12.208H98.8565V14ZM100.182 14V2.512H107.958V4.304H102.198V7.184H107.046V8.976H102.198V12.208H107.958V14H100.182ZM113.586 9.552H111.73V14H109.682V2.512H114.274C116.914 2.512 118.434 3.792 118.434 6.032C118.434 7.808 117.49 8.992 115.762 9.392L118.722 14H116.386L113.586 9.552ZM111.73 4.272V7.792H114.162C115.618 7.792 116.418 7.168 116.418 6.032C116.418 4.88 115.634 4.272 114.162 4.272H111.73ZM120.708 2.512L123.684 7.392L126.66 2.512H128.836L124.692 9.264V14H122.644V9.264L118.484 2.512H120.708ZM130.038 14H127.718V11.68H130.038V14ZM133.187 5.472C132.675 6.192 132.419 7.168 132.419 8.256C132.419 9.344 132.675 10.32 133.187 11.04C133.763 11.888 134.643 12.368 135.651 12.368C136.979 12.368 137.955 11.568 138.323 10.208L140.243 10.864C139.539 12.976 137.891 14.176 135.651 14.176C134.099 14.176 132.707 13.536 131.747 12.384C130.851 11.312 130.371 9.872 130.371 8.256C130.371 6.64 130.851 5.2 131.747 4.128C132.707 2.976 134.099 2.336 135.651 2.336C137.891 2.336 139.539 3.536 140.243 5.648L138.323 6.304C137.955 4.944 136.979 4.144 135.651 4.144C134.643 4.144 133.763 4.624 133.187 5.472ZM142.451 12.416C141.539 11.344 141.043 9.904 141.043 8.256C141.043 6.608 141.539 5.168 142.451 4.096C143.427 2.96 144.803 2.336 146.387 2.336C147.971 2.336 149.347 2.96 150.323 4.096C151.235 5.168 151.731 6.608 151.731 8.256C151.731 9.904 151.235 11.344 150.323 12.416C149.347 13.552 147.971 14.176 146.387 14.176C144.803 14.176 143.427 13.552 142.451 12.416ZM146.387 12.368C147.363 12.368 148.163 11.984 148.771 11.232C149.379 10.48 149.683 9.488 149.683 8.256C149.683 7.024 149.379 6.032 148.771 5.28C148.163 4.528 147.363 4.144 146.387 4.144C145.411 4.144 144.611 4.528 144.003 5.28C143.395 6.032 143.091 7.024 143.091 8.256C143.091 9.488 143.395 10.48 144.003 11.232C144.611 11.984 145.411 12.368 146.387 12.368ZM162.906 5.12L159.898 14H158.234L155.226 5.12V14H153.322V2.512H156.138L159.098 11.312L162.058 2.512H164.81V14H162.906V5.12Z" fill="black"/>
</svg>
