<svg width="944" height="192" viewBox="0 0 944 192" fill="none" xmlns="http://www.w3.org/2000/svg">
<path d="M66.1124 6.10352e-05H134.846L200.959 191.577H140.59L130.644 161.149H68.4639L58.5181 191.577H0L66.1124 6.10352e-05ZM99.5733 66.9554L84.1535 113.639H114.993L99.5733 66.9554Z" fill="black"/>
<path d="M270.695 132.887V191.576H211.367V0H296.793C345.673 0 374.393 24.7983 374.393 66.4436C374.393 92.0685 362.095 112.616 339.891 123.558L380.908 191.576H312.983L280.062 132.887H270.656H270.695ZM270.695 85.928H293.67C308.049 85.928 315.875 79.7875 315.875 68.333C315.875 56.8786 308.28 50.187 293.67 50.187H270.695V85.928Z" fill="black"/>
<path d="M554.727 50.6987H501.953V191.576H442.625V50.6987H389.851V0H554.727V50.6987Z" fill="black"/>
<path d="M943.961 191.576H885.443L875.497 161.149H813.317L803.371 191.576H743.003L809.154 0H877.887L944 191.576H943.961ZM829.007 113.678H859.846L844.426 66.9947L829.007 113.678Z" fill="black"/>
<path d="M663.861 132.887L630.94 191.576H563.015L604.032 123.558C581.828 112.616 569.53 92.0685 569.53 66.4436C569.53 24.8376 598.288 0 647.13 0H732.556V191.576H673.228V132.887H663.822H663.861ZM673.267 50.187H650.291C635.643 50.187 628.087 56.603 628.087 68.333C628.087 80.063 635.912 85.928 650.291 85.928H673.267V50.187Z" fill="black"/>
</svg>
