<svg width="950" height="452" viewBox="0 0 950 452" fill="none" xmlns="http://www.w3.org/2000/svg">
<rect x="25" y="0.576477" width="90" height="90" stroke="black"/>
<rect x="115" y="0.576477" width="90" height="90" stroke="black"/>
<rect x="205" y="0.576477" width="90" height="90" stroke="black"/>
<rect x="295" y="0.576477" width="90" height="90" stroke="black"/>
<g clip-path="url(#clip0_1_182)">
<circle cx="430" cy="45.5765" r="45" stroke="black"/>
</g>
<rect x="385" y="0.576477" width="90" height="90" stroke="black"/>
<g clip-path="url(#clip1_1_182)">
<circle cx="520" cy="45.5765" r="45" stroke="black"/>
</g>
<rect x="475" y="0.576477" width="90" height="90" stroke="black"/>
<rect x="565" y="0.576477" width="90" height="90" stroke="black"/>
<rect x="655" y="0.576477" width="90" height="90" stroke="black"/>
<rect x="745" y="0.576477" width="90" height="90" stroke="black"/>
<rect x="835" y="0.576477" width="90" height="90" stroke="black"/>
<rect x="25" y="90.5765" width="90" height="90" stroke="black"/>
<rect x="115" y="90.5765" width="90" height="90" stroke="black"/>
<g clip-path="url(#clip2_1_182)">
<line x1="250.5" y1="90.5765" x2="250.5" y2="180.576" stroke="black"/>
<line x1="295" y1="136.076" x2="205" y2="136.076" stroke="black"/>
</g>
<rect x="205" y="90.5765" width="90" height="90" stroke="black"/>
<g clip-path="url(#clip3_1_182)">
<line x1="340.5" y1="90.5765" x2="340.5" y2="180.576" stroke="black"/>
<line x1="385" y1="136.076" x2="295" y2="136.076" stroke="black"/>
</g>
<rect x="295" y="90.5765" width="90" height="90" stroke="black"/>
<g clip-path="url(#clip4_1_182)">
<line x1="430.5" y1="90.5765" x2="430.5" y2="180.576" stroke="black"/>
<line x1="475" y1="136.076" x2="385" y2="136.076" stroke="black"/>
</g>
<rect x="385" y="90.5765" width="90" height="90" stroke="black"/>
<rect x="475" y="90.5765" width="90" height="90" stroke="black"/>
<rect x="565" y="90.5765" width="90" height="90" stroke="black"/>
<rect x="655" y="90.5765" width="90" height="90" stroke="black"/>
<rect x="745" y="90.5765" width="90" height="90" stroke="black"/>
<rect x="835" y="90.5765" width="90" height="90" stroke="black"/>
<rect x="25" y="180.576" width="90" height="90" stroke="black"/>
<rect x="115" y="180.576" width="90" height="90" stroke="black"/>
<rect x="205" y="180.576" width="90" height="90" stroke="black"/>
<rect x="295" y="180.576" width="90" height="90" stroke="black"/>
<rect x="385" y="180.576" width="90" height="90" stroke="black"/>
<rect x="475" y="180.576" width="90" height="90" stroke="black"/>
<rect x="565" y="180.576" width="90" height="90" stroke="black"/>
<rect x="655" y="180.576" width="90" height="90" stroke="black"/>
<g clip-path="url(#clip5_1_182)">
<line x1="790.5" y1="180.576" x2="790.5" y2="270.576" stroke="black"/>
<line x1="835" y1="226.076" x2="745" y2="226.076" stroke="black"/>
</g>
<rect x="745" y="180.576" width="90" height="90" stroke="black"/>
<g clip-path="url(#clip6_1_182)">
<line x1="880.5" y1="180.576" x2="880.5" y2="270.576" stroke="black"/>
<line x1="925" y1="226.076" x2="835" y2="226.076" stroke="black"/>
</g>
<rect x="835" y="180.576" width="90" height="90" stroke="black"/>
<g clip-path="url(#clip7_1_182)">
<line x1="70.5" y1="270.576" x2="70.5" y2="360.576" stroke="black"/>
<line x1="115" y1="316.076" x2="25" y2="316.076" stroke="black"/>
</g>
<rect x="25" y="270.576" width="90" height="90" stroke="black"/>
<rect x="115" y="270.576" width="90" height="90" stroke="black"/>
<rect x="205" y="270.576" width="90" height="90" stroke="black"/>
<rect x="295" y="270.576" width="90" height="90" stroke="black"/>
<rect x="385" y="270.576" width="90" height="90" stroke="black"/>
<rect x="475" y="270.576" width="90" height="90" stroke="black"/>
<rect x="565" y="270.576" width="90" height="90" stroke="black"/>
<rect x="655" y="270.576" width="90" height="90" stroke="black"/>
<rect x="745" y="270.576" width="90" height="90" stroke="black"/>
<rect x="835" y="270.576" width="90" height="90" stroke="black"/>
<rect x="25" y="360.576" width="90" height="90" stroke="black"/>
<rect x="115" y="360.576" width="90" height="90" stroke="black"/>
<rect x="205" y="360.576" width="90" height="90" stroke="black"/>
<rect x="295" y="360.576" width="90" height="90" stroke="black"/>
<rect x="385" y="360.576" width="90" height="90" stroke="black"/>
<rect x="475" y="360.576" width="90" height="90" stroke="black"/>
<rect x="565" y="360.576" width="90" height="90" stroke="black"/>
<rect x="655" y="360.576" width="90" height="90" stroke="black"/>
<g clip-path="url(#clip8_1_182)">
<ellipse cx="835" cy="405.576" rx="90" ry="45" stroke="black"/>
</g>
<rect x="745" y="360.576" width="90" height="90" stroke="black"/>
<g clip-path="url(#clip9_1_182)">
<ellipse cx="835" cy="405.576" rx="90" ry="45" transform="rotate(-180 835 405.576)" stroke="black"/>
</g>
<rect x="925" y="450.576" width="90" height="90" transform="rotate(-180 925 450.576)" stroke="black"/>
<defs>
<clipPath id="clip0_1_182">
<rect x="385" y="0.576477" width="90" height="90" fill="white"/>
</clipPath>
<clipPath id="clip1_1_182">
<rect x="475" y="0.576477" width="90" height="90" fill="white"/>
</clipPath>
<clipPath id="clip2_1_182">
<rect x="205" y="90.5765" width="90" height="90" fill="white"/>
</clipPath>
<clipPath id="clip3_1_182">
<rect x="295" y="90.5765" width="90" height="90" fill="white"/>
</clipPath>
<clipPath id="clip4_1_182">
<rect x="385" y="90.5765" width="90" height="90" fill="white"/>
</clipPath>
<clipPath id="clip5_1_182">
<rect x="745" y="180.576" width="90" height="90" fill="white"/>
</clipPath>
<clipPath id="clip6_1_182">
<rect x="835" y="180.576" width="90" height="90" fill="white"/>
</clipPath>
<clipPath id="clip7_1_182">
<rect x="25" y="270.576" width="90" height="90" fill="white"/>
</clipPath>
<clipPath id="clip8_1_182">
<rect x="745" y="360.576" width="90" height="90" fill="white"/>
</clipPath>
<clipPath id="clip9_1_182">
<rect x="925" y="450.576" width="90" height="90" transform="rotate(-180 925 450.576)" fill="white"/>
</clipPath>
</defs>
</svg>
