<svg width="630" height="452" viewBox="0 0 630 452" fill="none" xmlns="http://www.w3.org/2000/svg">
<rect y="1" width="90" height="90" stroke="black"/>
<rect x="90" y="1" width="90" height="90" stroke="black"/>
<rect x="180" y="1" width="90" height="90" stroke="black"/>
<rect x="270" y="1" width="90" height="90" stroke="black"/>
<rect x="360" y="1" width="90" height="90" stroke="black"/>
<rect x="450" y="1" width="90" height="90" stroke="black"/>
<rect x="540" y="1" width="90" height="90" stroke="black"/>
<rect y="91" width="90" height="90" stroke="black"/>
<rect x="90" y="91" width="90" height="90" stroke="black"/>
<rect x="180" y="91" width="90" height="90" stroke="black"/>
<rect x="270" y="91" width="90" height="90" stroke="black"/>
<rect x="360" y="91" width="90" height="90" stroke="black"/>
<rect x="450" y="91" width="90" height="90" stroke="black"/>
<rect x="540" y="91" width="90" height="90" stroke="black"/>
<g clip-path="url(#clip0_405_535)">
<circle cx="45" cy="226" r="45" stroke="black"/>
</g>
<rect y="181" width="90" height="90" stroke="black"/>
<rect x="90" y="181" width="90" height="90" stroke="black"/>
<g clip-path="url(#clip1_405_535)">
<line x1="269.646" y1="271.354" x2="179.844" y2="181.551" stroke="black"/>
</g>
<rect x="270" y="181" width="90" height="90" transform="rotate(90 270 181)" stroke="black"/>
<g clip-path="url(#clip2_405_535)">
<line x1="360.354" y1="181.354" x2="270.551" y2="271.156" stroke="black"/>
</g>
<rect x="270" y="181" width="90" height="90" stroke="black"/>
<rect x="360" y="181" width="90" height="90" stroke="black"/>
<rect x="450" y="181" width="90" height="90" stroke="black"/>
<rect x="540" y="181" width="90" height="90" stroke="black"/>
<rect y="271" width="90" height="90" stroke="black"/>
<g clip-path="url(#clip3_405_535)">
<circle cx="135" cy="316" r="45" stroke="black"/>
</g>
<rect x="90" y="271" width="90" height="90" stroke="black"/>
<rect x="180" y="271" width="90" height="90" stroke="black"/>
<g clip-path="url(#clip4_405_535)">
<line x1="360.354" y1="271.354" x2="270.551" y2="361.156" stroke="black"/>
</g>
<rect x="270" y="271" width="90" height="90" stroke="black"/>
<g clip-path="url(#clip5_405_535)">
<line x1="449.646" y1="361.354" x2="359.844" y2="271.551" stroke="black"/>
</g>
<rect x="450" y="271" width="90" height="90" transform="rotate(90 450 271)" stroke="black"/>
<rect x="450" y="271" width="90" height="90" stroke="black"/>
<rect x="540" y="271" width="90" height="90" stroke="black"/>
<rect y="361" width="90" height="90" stroke="black"/>
<rect x="90" y="361" width="90" height="90" stroke="black"/>
<rect x="180" y="361" width="90" height="90" stroke="black"/>
<rect x="270" y="361" width="90" height="90" stroke="black"/>
<defs>
<clipPath id="clip0_405_535">
<rect y="181" width="90" height="90" fill="white"/>
</clipPath>
<clipPath id="clip1_405_535">
<rect x="270" y="181" width="90" height="90" transform="rotate(90 270 181)" fill="white"/>
</clipPath>
<clipPath id="clip2_405_535">
<rect x="270" y="181" width="90" height="90" fill="white"/>
</clipPath>
<clipPath id="clip3_405_535">
<rect x="90" y="271" width="90" height="90" fill="white"/>
</clipPath>
<clipPath id="clip4_405_535">
<rect x="270" y="271" width="90" height="90" fill="white"/>
</clipPath>
<clipPath id="clip5_405_535">
<rect x="450" y="271" width="90" height="90" transform="rotate(90 450 271)" fill="white"/>
</clipPath>
</defs>
</svg>
