<svg width="630" height="51" viewBox="0 0 630 51" fill="none" xmlns="http://www.w3.org/2000/svg">
<rect y="1" width="720" height="50" fill="#EDF851"/>
<rect y="1" width="720" height="50" stroke="black"/>
<path d="M33.232 18.272L34.304 21.168L33.904 21.36C33.04 20.224 31.488 18.768 29.984 18.768C27.328 18.768 26.576 21.632 26.576 23.776C26.576 26.08 27.76 29.2 30.496 29.2C32.208 29.2 33.344 28.016 34.16 26.64L34.496 26.832C33.632 28.72 32.032 30.176 29.888 30.176C26.736 30.176 24.736 27.568 24.736 24.576C24.736 23.12 25.216 21.664 26.032 20.448C26.864 19.168 28.176 18.112 29.792 18.112C30.352 18.112 30.768 18.24 31.12 18.368C31.488 18.496 31.808 18.608 32.144 18.608C32.56 18.608 32.88 18.448 33.232 18.272ZM39.0811 30.176C37.0331 30.176 35.5451 28.192 35.5451 26.224C35.5451 24.144 36.9211 22 39.1771 22C41.4011 22 42.7291 24.176 42.7291 26.208C42.7291 28.256 41.2091 30.176 39.0811 30.176ZM39.0811 29.648C40.7451 29.648 41.1131 27.136 41.1131 25.904C41.1131 24.736 40.7451 22.528 39.1771 22.528C37.5611 22.528 37.1611 24.64 37.1611 25.872C37.1611 27.008 37.5291 29.648 39.0811 29.648ZM46.2386 24.016V27.808C46.2386 29.312 46.2386 29.408 47.3266 29.536V30H43.7426V29.536C44.8306 29.408 44.8306 29.312 44.8306 27.808V24.368C44.7826 23.52 44.7666 23.216 43.7906 23.216V22.832L46.2386 21.888V23.472C46.8626 22.656 47.8386 22 48.8946 22C49.8066 22 50.4946 22.64 50.7986 23.472C51.5666 22.72 52.3986 22 53.5346 22C54.2226 22 54.8786 22.24 55.2466 22.88C55.5986 23.488 55.5826 24.368 55.5826 25.088V27.808C55.5826 29.312 55.5826 29.408 56.6546 29.536V30H53.0866V29.536C54.1746 29.408 54.1746 29.312 54.1746 27.808V24.944C54.1746 24.08 54.1906 22.848 53.0066 22.848C52.1746 22.848 51.4386 23.44 50.9106 24.016V27.808C50.9106 29.312 50.9106 29.408 51.9986 29.536V30H48.4306V29.536C49.5026 29.408 49.5026 29.312 49.5026 27.808V24.944C49.5026 24.08 49.4706 22.848 48.2866 22.848C47.4546 22.848 46.7186 23.44 46.2386 24.016ZM59.723 21.888V27.808C59.723 29.312 59.723 29.408 60.811 29.536V30H57.227V29.52C58.315 29.392 58.315 29.28 58.315 27.792V24.368C58.267 23.52 58.251 23.216 57.275 23.216V22.832L59.723 21.888ZM59.867 19.184C59.867 19.76 59.387 20.24 58.811 20.24C58.219 20.24 57.739 19.776 57.739 19.184C57.739 18.592 58.203 18.112 58.795 18.112C59.387 18.112 59.867 18.592 59.867 19.184ZM63.9261 23.904V27.808C63.9261 29.312 63.9261 29.408 64.9981 29.536V30H61.4301V29.536C62.5181 29.408 62.5181 29.312 62.5181 27.808V24.368C62.4701 23.52 62.4541 23.216 61.4781 23.216V22.832L63.9261 21.888V23.248C64.5341 22.592 65.5421 22 66.4381 22C66.9981 22 67.5581 22.224 67.9581 22.624C68.4861 23.216 68.5021 23.952 68.5021 24.704V27.808C68.5021 29.312 68.5021 29.408 69.5741 29.536V30H65.9901V29.536C67.0941 29.408 67.0941 29.312 67.0941 27.808V25.008C67.0941 24.048 67.0301 22.848 65.7661 22.848C65.0621 22.848 64.4061 23.424 63.9261 23.904ZM75.4419 30.336L73.2819 29.728C72.6259 29.936 71.4579 30.288 71.4579 31.152C71.4579 32.208 73.3779 32.288 74.1939 32.288C74.9139 32.288 76.6099 32.192 76.6099 31.28C76.6099 30.688 75.8899 30.48 75.4419 30.336ZM73.5699 28.56L74.8339 28.864C75.9059 29.136 77.8099 29.392 77.8099 30.848C77.8099 32.608 75.3619 32.816 74.0179 32.816C72.9779 32.816 70.0499 32.672 70.0499 31.216C70.0499 30.08 71.6659 29.808 72.4659 29.536C72.0019 29.36 70.8019 29.088 70.8019 28.4C70.8019 27.728 71.6659 27.36 72.2259 27.232C71.3619 26.736 70.8659 25.808 70.8659 24.8C70.8659 23.056 72.4659 22 74.0819 22C74.8339 22 75.6499 22.224 76.2259 22.768C76.6419 22.352 77.2339 21.92 77.8739 21.92C78.3539 21.92 78.6899 22.304 78.6899 22.784C78.6899 23.168 78.4179 23.552 78.0339 23.552C77.4419 23.552 77.3779 22.912 76.8179 22.912C76.7059 22.912 76.6099 22.976 76.5139 23.056C76.9619 23.488 77.1539 24.288 77.1539 24.896C77.1539 26.592 75.5539 27.696 74.0179 27.696C73.6179 27.696 73.0579 27.616 72.6899 27.456C72.5139 27.52 72.2259 27.616 72.2259 27.856C72.2259 28.288 73.2819 28.48 73.5699 28.56ZM75.6339 24.96C75.6339 24.032 75.2179 22.528 74.0499 22.528C72.8339 22.528 72.3859 23.904 72.3859 24.912C72.3859 25.968 72.8659 27.168 74.0819 27.168C75.2819 27.168 75.6339 25.952 75.6339 24.96ZM89.8696 18.272L90.9256 21.088L90.4616 21.312C89.6776 20.048 88.4616 18.64 86.8616 18.64C85.6616 18.64 84.7336 19.568 84.7336 20.768C84.7336 22.16 86.2056 22.72 87.3256 23.056C89.3416 23.68 91.4056 24.224 91.4056 26.768C91.4056 28.816 89.8056 30.176 87.8216 30.176C86.8136 30.176 85.9496 29.712 85.3096 29.712C84.9576 29.712 84.5736 29.936 84.3336 30.176L83.1656 27.056L83.6456 26.832C84.6216 28.128 86.0616 29.648 87.7256 29.648C88.9576 29.648 90.0936 28.816 90.0936 27.488C90.0936 23.776 83.5496 25.664 83.5496 21.376C83.5496 19.36 84.9576 18.112 86.9416 18.112C87.4536 18.112 87.7416 18.208 88.2216 18.384C88.5896 18.496 88.7336 18.576 89.0856 18.576C89.3576 18.576 89.6776 18.496 89.8696 18.272ZM95.7374 30.176C93.6894 30.176 92.2014 28.192 92.2014 26.224C92.2014 24.144 93.5774 22 95.8334 22C98.0574 22 99.3854 24.176 99.3854 26.208C99.3854 28.256 97.8654 30.176 95.7374 30.176ZM95.7374 29.648C97.4014 29.648 97.7694 27.136 97.7694 25.904C97.7694 24.736 97.4014 22.528 95.8334 22.528C94.2174 22.528 93.8174 24.64 93.8174 25.872C93.8174 27.008 94.1854 29.648 95.7374 29.648ZM104.175 30.176C102.127 30.176 100.639 28.192 100.639 26.224C100.639 24.144 102.015 22 104.271 22C106.495 22 107.823 24.176 107.823 26.208C107.823 28.256 106.303 30.176 104.175 30.176ZM104.175 29.648C105.839 29.648 106.207 27.136 106.207 25.904C106.207 24.736 105.839 22.528 104.271 22.528C102.655 22.528 102.255 24.64 102.255 25.872C102.255 27.008 102.623 29.648 104.175 29.648ZM111.332 23.904V27.808C111.332 29.312 111.332 29.408 112.404 29.536V30H108.836V29.536C109.924 29.408 109.924 29.312 109.924 27.808V24.368C109.876 23.52 109.86 23.216 108.884 23.216V22.832L111.332 21.888V23.248C111.94 22.592 112.948 22 113.844 22C114.404 22 114.964 22.224 115.364 22.624C115.892 23.216 115.908 23.952 115.908 24.704V27.808C115.908 29.312 115.908 29.408 116.98 29.536V30H113.396V29.536C114.5 29.408 114.5 29.312 114.5 27.808V25.008C114.5 24.048 114.436 22.848 113.172 22.848C112.468 22.848 111.812 23.424 111.332 23.904Z" fill="black"/>
</svg>
