<svg width="1442" height="632" viewBox="0 0 1442 632" fill="none" xmlns="http://www.w3.org/2000/svg">
<rect x="1" y="1" width="90" height="90" stroke="black"/>
<rect x="91" y="1" width="90" height="90" stroke="black"/>
<rect x="181" y="1" width="90" height="90" stroke="black"/>
<rect x="271" y="1" width="90" height="90" stroke="black"/>
<rect x="361" y="1" width="90" height="90" stroke="black"/>
<rect x="451" y="1" width="90" height="90" stroke="black"/>
<rect x="541" y="1" width="90" height="90" stroke="black"/>
<rect x="631" y="1" width="90" height="90" stroke="black"/>
<rect x="721" y="1" width="90" height="90" stroke="black"/>
<rect x="811" y="1" width="90" height="90" stroke="black"/>
<rect x="901" y="1" width="90" height="90" stroke="black"/>
<g clip-path="url(#clip0_405_407)">
<line x1="1036.5" y1="1" x2="1036.5" y2="91" stroke="black"/>
<line x1="1081" y1="46.5" x2="991" y2="46.5" stroke="black"/>
</g>
<rect x="991" y="1" width="90" height="90" stroke="black"/>
<g clip-path="url(#clip1_405_407)">
<line x1="1126.5" y1="1" x2="1126.5" y2="91" stroke="black"/>
<line x1="1171" y1="46.5" x2="1081" y2="46.5" stroke="black"/>
</g>
<rect x="1081" y="1" width="90" height="90" stroke="black"/>
<g clip-path="url(#clip2_405_407)">
<line x1="1216.5" y1="1" x2="1216.5" y2="91" stroke="black"/>
<line x1="1261" y1="46.5" x2="1171" y2="46.5" stroke="black"/>
</g>
<rect x="1171" y="1" width="90" height="90" stroke="black"/>
<rect x="1261" y="1" width="90" height="90" stroke="black"/>
<rect x="1351" y="1" width="90" height="90" stroke="black"/>
<rect x="1" y="91" width="90" height="90" stroke="black"/>
<rect x="91" y="91" width="90" height="90" stroke="black"/>
<rect x="181" y="91" width="90" height="90" stroke="black"/>
<g clip-path="url(#clip3_405_407)">
<circle cx="316" cy="136" r="45" stroke="black"/>
</g>
<rect x="271" y="91" width="90" height="90" stroke="black"/>
<g clip-path="url(#clip4_405_407)">
<circle cx="406" cy="136" r="45" stroke="black"/>
</g>
<rect x="361" y="91" width="90" height="90" stroke="black"/>
<rect x="451" y="91" width="90" height="90" stroke="black"/>
<rect x="541" y="91" width="90" height="90" stroke="black"/>
<rect x="631" y="91" width="90" height="90" stroke="black"/>
<rect x="721" y="91" width="90" height="90" stroke="black"/>
<rect x="811" y="91" width="90" height="90" stroke="black"/>
<rect x="901" y="91" width="90" height="90" stroke="black"/>
<g clip-path="url(#clip5_405_407)">
<line x1="1036.5" y1="91" x2="1036.5" y2="181" stroke="black"/>
<line x1="1081" y1="136.5" x2="991" y2="136.5" stroke="black"/>
</g>
<rect x="991" y="91" width="90" height="90" stroke="black"/>
<g clip-path="url(#clip6_405_407)">
<line x1="1126.5" y1="91" x2="1126.5" y2="181" stroke="black"/>
<line x1="1171" y1="136.5" x2="1081" y2="136.5" stroke="black"/>
</g>
<rect x="1081" y="91" width="90" height="90" stroke="black"/>
<g clip-path="url(#clip7_405_407)">
<line x1="1216.5" y1="91" x2="1216.5" y2="181" stroke="black"/>
<line x1="1261" y1="136.5" x2="1171" y2="136.5" stroke="black"/>
</g>
<rect x="1171" y="91" width="90" height="90" stroke="black"/>
<rect x="1261" y="91" width="90" height="90" stroke="black"/>
<rect x="1351" y="91" width="90" height="90" stroke="black"/>
<rect x="1" y="181" width="90" height="90" stroke="black"/>
<rect x="91" y="181" width="90" height="90" stroke="black"/>
<rect x="181" y="181" width="90" height="90" stroke="black"/>
<rect x="271" y="181" width="90" height="90" stroke="black"/>
<rect x="361" y="181" width="90" height="90" stroke="black"/>
<rect x="451" y="181" width="90" height="90" stroke="black"/>
<rect x="541" y="181" width="90" height="90" stroke="black"/>
<rect x="631" y="181" width="90" height="90" stroke="black"/>
<rect x="721" y="181" width="90" height="90" stroke="black"/>
<rect x="811" y="181" width="90" height="90" stroke="black"/>
<rect x="901" y="181" width="90" height="90" stroke="black"/>
<g clip-path="url(#clip8_405_407)">
<line x1="1036.5" y1="181" x2="1036.5" y2="271" stroke="black"/>
<line x1="1081" y1="226.5" x2="991" y2="226.5" stroke="black"/>
</g>
<rect x="991" y="181" width="90" height="90" stroke="black"/>
<g clip-path="url(#clip9_405_407)">
<line x1="1126.5" y1="181" x2="1126.5" y2="271" stroke="black"/>
<line x1="1171" y1="226.5" x2="1081" y2="226.5" stroke="black"/>
</g>
<rect x="1081" y="181" width="90" height="90" stroke="black"/>
<g clip-path="url(#clip10_405_407)">
<line x1="1216.5" y1="181" x2="1216.5" y2="271" stroke="black"/>
<line x1="1261" y1="226.5" x2="1171" y2="226.5" stroke="black"/>
</g>
<rect x="1171" y="181" width="90" height="90" stroke="black"/>
<rect x="1261" y="181" width="90" height="90" stroke="black"/>
<rect x="1351" y="181" width="90" height="90" stroke="black"/>
<rect x="1" y="271" width="90" height="90" stroke="black"/>
<rect x="91" y="271" width="90" height="90" stroke="black"/>
<rect x="181" y="271" width="90" height="90" stroke="black"/>
<rect x="271" y="271" width="90" height="90" stroke="black"/>
<rect x="361" y="271" width="90" height="90" stroke="black"/>
<rect x="451" y="271" width="90" height="90" stroke="black"/>
<rect x="541" y="271" width="90" height="90" stroke="black"/>
<rect x="631" y="271" width="90" height="90" stroke="black"/>
<rect x="721" y="271" width="90" height="90" stroke="black"/>
<rect x="811" y="271" width="90" height="90" stroke="black"/>
<rect x="901" y="271" width="90" height="90" stroke="black"/>
<rect x="991" y="271" width="90" height="90" stroke="black"/>
<rect x="1081" y="271" width="90" height="90" stroke="black"/>
<rect x="1171" y="271" width="90" height="90" stroke="black"/>
<rect x="1261" y="271" width="90" height="90" stroke="black"/>
<rect x="1351" y="271" width="90" height="90" stroke="black"/>
<rect x="1" y="361" width="90" height="90" stroke="black"/>
<rect x="91" y="361" width="90" height="90" stroke="black"/>
<rect x="181" y="361" width="90" height="90" stroke="black"/>
<rect x="271" y="361" width="90" height="90" stroke="black"/>
<rect x="361" y="361" width="90" height="90" stroke="black"/>
<rect x="451" y="361" width="90" height="90" stroke="black"/>
<rect x="541" y="361" width="90" height="90" stroke="black"/>
<rect x="631" y="361" width="90" height="90" stroke="black"/>
<rect x="721" y="361" width="90" height="90" stroke="black"/>
<g clip-path="url(#clip11_405_407)">
<ellipse cx="901" cy="406" rx="90" ry="45" stroke="black"/>
</g>
<rect x="811" y="361" width="90" height="90" stroke="black"/>
<g clip-path="url(#clip12_405_407)">
<ellipse cx="901" cy="406" rx="90" ry="45" transform="rotate(-180 901 406)" stroke="black"/>
</g>
<rect x="991" y="451" width="90" height="90" transform="rotate(-180 991 451)" stroke="black"/>
<rect x="991" y="361" width="90" height="90" stroke="black"/>
<rect x="1081" y="361" width="90" height="90" stroke="black"/>
<rect x="1171" y="361" width="90" height="90" stroke="black"/>
<rect x="1261" y="361" width="90" height="90" stroke="black"/>
<rect x="1351" y="361" width="90" height="90" stroke="black"/>
<rect x="1" y="451" width="90" height="90" stroke="black"/>
<rect x="91" y="451" width="90" height="90" stroke="black"/>
<rect x="631" y="226" width="180" height="180" fill="#F2F2F2"/>
<rect x="631" y="226" width="180" height="180" stroke="black"/>
<path d="M667.995 257.328L665.435 266H664.923L662.395 257.04C662.043 255.76 661.787 254.72 660.187 254.816V254.288H664.763V254.816C664.315 254.848 663.579 254.8 663.579 255.408C663.579 255.712 663.739 256.224 663.835 256.496L665.659 263.008L667.643 256.24C667.435 255.408 666.971 254.736 666.027 254.816V254.288H670.619V254.816C670.091 254.816 669.211 254.752 669.211 255.472C669.211 255.696 669.275 255.936 669.323 256.16L671.243 263.008L672.891 257.376C673.035 256.864 673.275 256.096 673.275 255.6C673.275 254.752 672.363 254.864 671.899 254.816V254.288H676.059V254.816C674.283 254.736 674.011 256.16 673.595 257.504L671.003 266H670.491L667.995 257.328ZM681.982 261.6H676.558C676.558 263.168 677.022 265.488 679.022 265.488C680.094 265.488 681.022 264.896 681.646 264.032L681.918 264.288C681.246 265.392 680.126 266.176 678.814 266.176C676.574 266.176 674.942 264.352 674.942 262.16C674.942 260.112 676.366 258 678.606 258C680.606 258 681.982 259.712 681.982 261.6ZM676.638 260.992H680.366C680.462 259.888 679.982 258.528 678.59 258.528C677.23 258.528 676.67 259.904 676.638 260.992ZM693.598 263.872L693.838 264.096C693.07 265.264 691.918 266.176 690.462 266.176C688.366 266.176 686.878 264.272 686.878 262.288C686.878 259.92 688.494 258 690.958 258C691.87 258 693.582 258.56 693.582 259.68C693.582 260.144 693.182 260.48 692.718 260.48C691.534 260.48 691.998 258.528 690.462 258.528C688.814 258.528 688.494 260.704 688.494 261.936C688.494 263.456 689.342 265.328 691.118 265.328C692.206 265.328 692.91 264.624 693.598 263.872ZM696.952 259.92V263.808C696.952 265.312 696.952 265.408 698.04 265.536V266H694.472V265.536C695.544 265.408 695.544 265.312 695.544 263.808V256.512C695.544 255.12 695.32 255.184 694.184 255.104V254.64L696.952 253.728V259.248C697.672 258.592 698.808 258 699.784 258C701.464 258 701.8 259.216 701.8 260.88V263.808C701.8 265.312 701.8 265.408 702.872 265.536V266H699.32V265.536C700.392 265.408 700.392 265.312 700.392 263.808V260.88C700.392 259.76 700.168 258.848 699.096 258.848C698.264 258.848 697.528 259.408 696.952 259.92ZM710.825 261.6H705.401C705.401 263.168 705.865 265.488 707.865 265.488C708.937 265.488 709.865 264.896 710.489 264.032L710.761 264.288C710.089 265.392 708.969 266.176 707.657 266.176C705.417 266.176 703.785 264.352 703.785 262.16C703.785 260.112 705.209 258 707.449 258C709.449 258 710.825 259.712 710.825 261.6ZM705.481 260.992H709.209C709.305 259.888 708.825 258.528 707.433 258.528C706.073 258.528 705.513 259.904 705.481 260.992ZM714.073 260.48V263.808C714.073 265.312 714.073 265.408 715.145 265.536V266H711.609V265.536C712.665 265.408 712.665 265.312 712.665 263.808V260.368C712.617 259.52 712.601 259.216 711.625 259.216V258.832L714.073 257.888V259.776C714.681 259.024 715.641 257.888 716.697 257.888C717.225 257.888 717.689 258.256 717.689 258.816C717.689 259.312 717.353 259.712 716.825 259.712C716.265 259.712 716.057 259.296 715.545 259.296C714.985 259.296 714.345 260.032 714.073 260.48ZM720.434 257.888V263.808C720.434 265.312 720.434 265.408 721.522 265.536V266H717.938V265.52C719.026 265.392 719.026 265.28 719.026 263.792V260.368C718.978 259.52 718.962 259.216 717.986 259.216V258.832L720.434 257.888ZM720.578 255.184C720.578 255.76 720.098 256.24 719.522 256.24C718.93 256.24 718.45 255.776 718.45 255.184C718.45 254.592 718.914 254.112 719.506 254.112C720.098 254.112 720.578 254.592 720.578 255.184ZM727.357 257.888L728.285 260.496L727.901 260.704C727.117 259.696 726.157 258.528 724.861 258.528C724.237 258.528 723.597 258.96 723.597 259.616C723.597 261.568 728.621 260.832 728.621 263.76C728.621 265.136 727.293 266.176 726.013 266.176C725.613 266.176 725.325 266.064 724.957 265.952C724.765 265.888 724.573 265.808 724.365 265.808C724.029 265.808 723.709 265.952 723.437 266.176L722.445 263.456L722.797 263.28C723.405 264.288 724.909 265.648 726.109 265.648C726.845 265.648 727.517 265.088 727.517 264.336C727.517 262.272 722.541 263.168 722.541 260.272C722.541 258.912 723.789 258 725.053 258C725.629 258 726.189 258.256 726.637 258.256C726.941 258.256 727.165 258.112 727.357 257.888ZM731.905 259.92V263.808C731.905 265.312 731.905 265.408 732.993 265.536V266H729.425V265.536C730.497 265.408 730.497 265.312 730.497 263.808V256.512C730.497 255.12 730.273 255.184 729.137 255.104V254.64L731.905 253.728V259.248C732.625 258.592 733.761 258 734.737 258C736.417 258 736.753 259.216 736.753 260.88V263.808C736.753 265.312 736.753 265.408 737.825 265.536V266H734.273V265.536C735.345 265.408 735.345 265.312 735.345 263.808V260.88C735.345 259.76 735.121 258.848 734.049 258.848C733.217 258.848 732.481 259.408 731.905 259.92ZM749.779 261.6H744.355C744.355 263.168 744.819 265.488 746.819 265.488C747.891 265.488 748.819 264.896 749.443 264.032L749.715 264.288C749.043 265.392 747.923 266.176 746.611 266.176C744.371 266.176 742.739 264.352 742.739 262.16C742.739 260.112 744.163 258 746.403 258C748.403 258 749.779 259.712 749.779 261.6ZM744.435 260.992H748.163C748.259 259.888 747.779 258.528 746.387 258.528C745.027 258.528 744.467 259.904 744.435 260.992ZM754.291 264.016L755.603 260.544C755.715 260.224 755.923 259.776 755.923 259.44C755.923 258.832 755.395 258.64 754.867 258.64V258.176H758.035V258.64C757.795 258.656 757.539 258.656 757.347 258.816C757.043 259.088 756.723 259.952 756.579 260.336L754.323 266H753.555L751.139 259.872C750.899 259.296 750.739 258.656 750.003 258.64V258.176H753.555V258.64C753.139 258.64 752.531 258.704 752.531 259.248C752.531 259.488 752.691 259.904 752.771 260.112L754.291 264.016ZM765.357 261.6H759.933C759.933 263.168 760.397 265.488 762.397 265.488C763.469 265.488 764.397 264.896 765.021 264.032L765.293 264.288C764.621 265.392 763.501 266.176 762.189 266.176C759.949 266.176 758.317 264.352 758.317 262.16C758.317 260.112 759.741 258 761.981 258C763.981 258 765.357 259.712 765.357 261.6ZM760.013 260.992H763.741C763.837 259.888 763.357 258.528 761.965 258.528C760.605 258.528 760.045 259.904 760.013 260.992ZM768.605 260.48V263.808C768.605 265.312 768.605 265.408 769.677 265.536V266H766.141V265.536C767.197 265.408 767.197 265.312 767.197 263.808V260.368C767.149 259.52 767.133 259.216 766.157 259.216V258.832L768.605 257.888V259.776C769.213 259.024 770.173 257.888 771.229 257.888C771.757 257.888 772.221 258.256 772.221 258.816C772.221 259.312 771.885 259.712 771.357 259.712C770.797 259.712 770.589 259.296 770.077 259.296C769.517 259.296 768.877 260.032 768.605 260.48ZM777.653 264L779.013 260.512C779.125 260.224 779.349 259.632 779.349 259.312C779.349 258.704 778.629 258.64 778.165 258.64V258.176H781.573V258.64C781.301 258.656 780.981 258.656 780.757 258.848C780.293 259.184 779.909 260.24 779.701 260.8L777.397 266.528C776.965 267.68 776.405 268.992 774.981 268.992C774.389 268.992 773.733 268.608 773.733 267.936C773.733 267.456 774.117 267.12 774.581 267.12C775.205 267.12 775.381 267.744 775.781 267.744C776.437 267.744 776.709 266.352 776.933 265.872L774.645 260.096C774.341 259.36 774.181 258.64 773.237 258.64V258.176H776.853V258.64C776.517 258.64 775.893 258.656 775.893 259.104C775.893 259.344 776.005 259.648 776.101 259.872L777.653 264ZM666.957 281.872L667.197 282.096C666.429 283.264 665.277 284.176 663.821 284.176C661.725 284.176 660.237 282.272 660.237 280.288C660.237 277.92 661.853 276 664.317 276C665.229 276 666.941 276.56 666.941 277.68C666.941 278.144 666.541 278.48 666.077 278.48C664.893 278.48 665.357 276.528 663.821 276.528C662.173 276.528 661.853 278.704 661.853 279.936C661.853 281.456 662.701 283.328 664.477 283.328C665.565 283.328 666.269 282.624 666.957 281.872ZM670.311 277.92V281.808C670.311 283.312 670.311 283.408 671.399 283.536V284H667.831V283.536C668.903 283.408 668.903 283.312 668.903 281.808V274.512C668.903 273.12 668.679 273.184 667.543 273.104V272.64L670.311 271.728V277.248C671.031 276.592 672.167 276 673.143 276C674.823 276 675.159 277.216 675.159 278.88V281.808C675.159 283.312 675.159 283.408 676.231 283.536V284H672.679V283.536C673.751 283.408 673.751 283.312 673.751 281.808V278.88C673.751 277.76 673.527 276.848 672.455 276.848C671.623 276.848 670.887 277.408 670.311 277.92ZM681.593 282.416V279.808C680.457 280 678.697 280.768 678.697 282.096C678.697 282.848 679.225 283.328 679.865 283.328C680.457 283.328 681.193 282.864 681.593 282.416ZM681.593 279.28V278.224C681.593 277.44 681.433 276.528 680.473 276.528C679.673 276.528 679.337 277.056 679.161 277.744C679.017 278.24 678.809 278.544 678.233 278.544C677.785 278.544 677.481 278.272 677.481 277.84C677.481 276.512 679.353 276 680.393 276C681.065 276 681.881 276.112 682.425 276.56C683.001 277.04 683.001 277.712 683.001 278.384V282.032C683.001 282.416 683.001 283.12 683.481 283.12C683.753 283.12 683.945 282.928 684.137 282.72L684.345 283.056C683.945 283.648 683.465 284.176 682.713 284.176C682.057 284.176 681.689 283.664 681.625 283.056C680.889 283.648 680.025 284.176 679.065 284.176C677.945 284.176 677.177 283.408 677.177 282.272C677.177 280.144 679.961 279.6 681.593 279.28ZM687.059 277.904V281.808C687.059 283.312 687.059 283.408 688.131 283.536V284H684.563V283.536C685.651 283.408 685.651 283.312 685.651 281.808V278.368C685.603 277.52 685.587 277.216 684.611 277.216V276.832L687.059 275.888V277.248C687.667 276.592 688.675 276 689.571 276C690.131 276 690.691 276.224 691.091 276.624C691.619 277.216 691.635 277.952 691.635 278.704V281.808C691.635 283.312 691.635 283.408 692.707 283.536V284H689.123V283.536C690.227 283.408 690.227 283.312 690.227 281.808V279.008C690.227 278.048 690.163 276.848 688.899 276.848C688.195 276.848 687.539 277.424 687.059 277.904ZM700.223 281.872L700.463 282.096C699.695 283.264 698.543 284.176 697.087 284.176C694.991 284.176 693.503 282.272 693.503 280.288C693.503 277.92 695.119 276 697.583 276C698.495 276 700.207 276.56 700.207 277.68C700.207 278.144 699.807 278.48 699.343 278.48C698.159 278.48 698.623 276.528 697.087 276.528C695.439 276.528 695.119 278.704 695.119 279.936C695.119 281.456 695.967 283.328 697.743 283.328C698.831 283.328 699.535 282.624 700.223 281.872ZM708.185 279.6H702.761C702.761 281.168 703.225 283.488 705.225 283.488C706.297 283.488 707.225 282.896 707.849 282.032L708.121 282.288C707.449 283.392 706.329 284.176 705.017 284.176C702.777 284.176 701.145 282.352 701.145 280.16C701.145 278.112 702.569 276 704.809 276C706.809 276 708.185 277.712 708.185 279.6ZM702.841 278.992H706.569C706.665 277.888 706.185 276.528 704.793 276.528C703.433 276.528 702.873 277.904 702.841 278.992ZM713.945 276.704H712.777V276.32C713.961 275.824 714.681 274.592 714.825 273.376H715.353V276.176H717.593V276.704H715.353V281.552C715.353 282.272 715.273 283.328 716.265 283.328C716.889 283.328 717.273 282.928 717.673 282.528L717.945 282.848C717.337 283.536 716.537 284.176 715.561 284.176C714.153 284.176 713.945 283.024 713.945 281.888V276.704ZM721.698 284.176C719.65 284.176 718.162 282.192 718.162 280.224C718.162 278.144 719.538 276 721.794 276C724.018 276 725.346 278.176 725.346 280.208C725.346 282.256 723.826 284.176 721.698 284.176ZM721.698 283.648C723.362 283.648 723.73 281.136 723.73 279.904C723.73 278.736 723.362 276.528 721.794 276.528C720.178 276.528 719.778 278.64 719.778 279.872C719.778 281.008 720.146 283.648 721.698 283.648ZM734.968 282.416V279.808C733.832 280 732.072 280.768 732.072 282.096C732.072 282.848 732.6 283.328 733.24 283.328C733.832 283.328 734.568 282.864 734.968 282.416ZM734.968 279.28V278.224C734.968 277.44 734.808 276.528 733.848 276.528C733.048 276.528 732.712 277.056 732.536 277.744C732.392 278.24 732.184 278.544 731.608 278.544C731.16 278.544 730.856 278.272 730.856 277.84C730.856 276.512 732.728 276 733.768 276C734.44 276 735.256 276.112 735.8 276.56C736.376 277.04 736.376 277.712 736.376 278.384V282.032C736.376 282.416 736.376 283.12 736.856 283.12C737.128 283.12 737.32 282.928 737.512 282.72L737.72 283.056C737.32 283.648 736.84 284.176 736.088 284.176C735.432 284.176 735.064 283.664 735 283.056C734.264 283.648 733.4 284.176 732.44 284.176C731.32 284.176 730.552 283.408 730.552 282.272C730.552 280.144 733.336 279.6 734.968 279.28ZM744.754 281.872L744.994 282.096C744.226 283.264 743.074 284.176 741.618 284.176C739.522 284.176 738.034 282.272 738.034 280.288C738.034 277.92 739.65 276 742.114 276C743.026 276 744.738 276.56 744.738 277.68C744.738 278.144 744.338 278.48 743.874 278.48C742.69 278.48 743.154 276.528 741.618 276.528C739.97 276.528 739.65 278.704 739.65 279.936C739.65 281.456 740.498 283.328 742.274 283.328C743.362 283.328 744.066 282.624 744.754 281.872ZM748.108 277.92V281.808C748.108 283.312 748.108 283.408 749.196 283.536V284H745.628V283.536C746.7 283.408 746.7 283.312 746.7 281.808V274.512C746.7 273.12 746.476 273.184 745.34 273.104V272.64L748.108 271.728V277.248C748.828 276.592 749.964 276 750.94 276C752.62 276 752.956 277.216 752.956 278.88V281.808C752.956 283.312 752.956 283.408 754.028 283.536V284H750.476V283.536C751.548 283.408 751.548 283.312 751.548 281.808V278.88C751.548 277.76 751.324 276.848 750.252 276.848C749.42 276.848 748.684 277.408 748.108 277.92ZM757.278 275.888V281.808C757.278 283.312 757.278 283.408 758.366 283.536V284H754.782V283.52C755.87 283.392 755.87 283.28 755.87 281.792V278.368C755.822 277.52 755.806 277.216 754.83 277.216V276.832L757.278 275.888ZM757.422 273.184C757.422 273.76 756.942 274.24 756.366 274.24C755.774 274.24 755.294 273.776 755.294 273.184C755.294 272.592 755.758 272.112 756.35 272.112C756.942 272.112 757.422 272.592 757.422 273.184ZM766.185 279.6H760.761C760.761 281.168 761.225 283.488 763.225 283.488C764.297 283.488 765.225 282.896 765.849 282.032L766.121 282.288C765.449 283.392 764.329 284.176 763.017 284.176C760.777 284.176 759.145 282.352 759.145 280.16C759.145 278.112 760.569 276 762.809 276C764.809 276 766.185 277.712 766.185 279.6ZM760.841 278.992H764.569C764.665 277.888 764.185 276.528 762.793 276.528C761.433 276.528 760.873 277.904 760.841 278.992ZM770.697 282.016L772.009 278.544C772.121 278.224 772.329 277.776 772.329 277.44C772.329 276.832 771.801 276.64 771.273 276.64V276.176H774.441V276.64C774.201 276.656 773.945 276.656 773.753 276.816C773.449 277.088 773.129 277.952 772.985 278.336L770.729 284H769.961L767.545 277.872C767.305 277.296 767.145 276.656 766.409 276.64V276.176H769.961V276.64C769.545 276.64 768.937 276.704 768.937 277.248C768.937 277.488 769.097 277.904 769.177 278.112L770.697 282.016ZM781.763 279.6H776.339C776.339 281.168 776.803 283.488 778.803 283.488C779.875 283.488 780.803 282.896 781.427 282.032L781.699 282.288C781.027 283.392 779.907 284.176 778.595 284.176C776.355 284.176 774.723 282.352 774.723 280.16C774.723 278.112 776.147 276 778.387 276C780.387 276 781.763 277.712 781.763 279.6ZM776.419 278.992H780.147C780.243 277.888 779.763 276.528 778.371 276.528C777.011 276.528 776.451 277.904 776.419 278.992ZM669.296 294.704H668.128V294.32C669.312 293.824 670.032 292.592 670.176 291.376H670.704V294.176H672.944V294.704H670.704V299.552C670.704 300.272 670.624 301.328 671.616 301.328C672.24 301.328 672.624 300.928 673.024 300.528L673.296 300.848C672.688 301.536 671.888 302.176 670.912 302.176C669.504 302.176 669.296 301.024 669.296 299.888V294.704ZM675.866 295.92V299.808C675.866 301.312 675.866 301.408 676.954 301.536V302H673.386V301.536C674.458 301.408 674.458 301.312 674.458 299.808V292.512C674.458 291.12 674.234 291.184 673.098 291.104V290.64L675.866 289.728V295.248C676.586 294.592 677.722 294 678.698 294C680.378 294 680.714 295.216 680.714 296.88V299.808C680.714 301.312 680.714 301.408 681.786 301.536V302H678.234V301.536C679.306 301.408 679.306 301.312 679.306 299.808V296.88C679.306 295.76 679.082 294.848 678.01 294.848C677.178 294.848 676.442 295.408 675.866 295.92ZM685.036 293.888V299.808C685.036 301.312 685.036 301.408 686.124 301.536V302H682.54V301.52C683.628 301.392 683.628 301.28 683.628 299.792V296.368C683.58 295.52 683.564 295.216 682.588 295.216V294.832L685.036 293.888ZM685.18 291.184C685.18 291.76 684.7 292.24 684.124 292.24C683.532 292.24 683.052 291.776 683.052 291.184C683.052 290.592 683.516 290.112 684.108 290.112C684.7 290.112 685.18 290.592 685.18 291.184ZM691.959 293.888L692.887 296.496L692.503 296.704C691.719 295.696 690.759 294.528 689.463 294.528C688.839 294.528 688.199 294.96 688.199 295.616C688.199 297.568 693.223 296.832 693.223 299.76C693.223 301.136 691.895 302.176 690.615 302.176C690.215 302.176 689.927 302.064 689.559 301.952C689.367 301.888 689.175 301.808 688.967 301.808C688.631 301.808 688.311 301.952 688.039 302.176L687.047 299.456L687.399 299.28C688.007 300.288 689.511 301.648 690.711 301.648C691.447 301.648 692.119 301.088 692.119 300.336C692.119 298.272 687.143 299.168 687.143 296.272C687.143 294.912 688.391 294 689.655 294C690.231 294 690.791 294.256 691.239 294.256C691.543 294.256 691.767 294.112 691.959 293.888ZM694.603 304.528L694.411 304.256C694.859 303.84 695.595 303.152 695.595 302.592C695.595 302.336 695.451 302.256 695.243 302.144C694.811 301.952 694.539 301.664 694.539 301.152C694.539 300.592 694.987 300.16 695.531 300.16C696.347 300.16 696.715 300.944 696.715 301.664C696.715 302.912 695.579 303.92 694.603 304.528ZM709.115 297.6H703.691C703.691 299.168 704.155 301.488 706.155 301.488C707.227 301.488 708.155 300.896 708.779 300.032L709.051 300.288C708.379 301.392 707.259 302.176 705.947 302.176C703.707 302.176 702.075 300.352 702.075 298.16C702.075 296.112 703.499 294 705.739 294C707.739 294 709.115 295.712 709.115 297.6ZM703.771 296.992H707.499C707.595 295.888 707.115 294.528 705.723 294.528C704.363 294.528 703.803 295.904 703.771 296.992ZM712.411 296.016V299.808C712.411 301.312 712.411 301.408 713.499 301.536V302H709.915V301.536C711.003 301.408 711.003 301.312 711.003 299.808V296.368C710.955 295.52 710.939 295.216 709.963 295.216V294.832L712.411 293.888V295.472C713.035 294.656 714.011 294 715.067 294C715.979 294 716.667 294.64 716.971 295.472C717.739 294.72 718.571 294 719.707 294C720.395 294 721.051 294.24 721.419 294.88C721.771 295.488 721.755 296.368 721.755 297.088V299.808C721.755 301.312 721.755 301.408 722.827 301.536V302H719.259V301.536C720.347 301.408 720.347 301.312 720.347 299.808V296.944C720.347 296.08 720.363 294.848 719.179 294.848C718.347 294.848 717.611 295.44 717.083 296.016V299.808C717.083 301.312 717.083 301.408 718.171 301.536V302H714.603V301.536C715.675 301.408 715.675 301.312 715.675 299.808V296.944C715.675 296.08 715.643 294.848 714.459 294.848C713.627 294.848 712.891 295.44 712.411 296.016ZM725.767 295.648V300.56C726.231 300.992 726.807 301.488 727.479 301.488C729.223 301.488 729.559 299.296 729.559 297.936C729.559 296.576 729.143 294.688 727.447 294.688C726.887 294.688 726.119 295.232 725.767 295.648ZM725.767 301.2V302.608C725.767 304.112 725.767 304.208 726.839 304.352V304.816H723.271V304.352C724.359 304.208 724.359 304.112 724.359 302.608V296.368C724.327 295.52 724.263 295.216 723.303 295.216V294.832L725.767 293.888V295.024C726.439 294.448 727.143 294 728.039 294C730.039 294 731.095 296.144 731.079 297.888C731.095 299.872 730.103 302.176 727.815 302.176C727.031 302.176 726.295 301.744 725.767 301.2ZM733.02 299.808V292.512C733.02 291.12 732.796 291.184 731.66 291.104V290.64L734.428 289.728V299.808C734.428 301.312 734.428 301.408 735.532 301.536V302H731.948V301.536C733.02 301.408 733.02 301.312 733.02 299.808ZM739.816 302.176C737.768 302.176 736.28 300.192 736.28 298.224C736.28 296.144 737.656 294 739.911 294C742.136 294 743.464 296.176 743.464 298.208C743.464 300.256 741.944 302.176 739.816 302.176ZM739.816 301.648C741.48 301.648 741.848 299.136 741.848 297.904C741.848 296.736 741.48 294.528 739.911 294.528C738.296 294.528 737.896 296.64 737.896 297.872C737.896 299.008 738.264 301.648 739.816 301.648ZM748.317 300L749.677 296.512C749.789 296.224 750.013 295.632 750.013 295.312C750.013 294.704 749.293 294.64 748.829 294.64V294.176H752.237V294.64C751.965 294.656 751.645 294.656 751.421 294.848C750.957 295.184 750.573 296.24 750.365 296.8L748.061 302.528C747.629 303.68 747.069 304.992 745.645 304.992C745.053 304.992 744.397 304.608 744.397 303.936C744.397 303.456 744.781 303.12 745.245 303.12C745.869 303.12 746.045 303.744 746.445 303.744C747.101 303.744 747.373 302.352 747.597 301.872L745.309 296.096C745.005 295.36 744.845 294.64 743.901 294.64V294.176H747.517V294.64C747.181 294.64 746.557 294.656 746.557 295.104C746.557 295.344 746.669 295.648 746.765 295.872L748.317 300ZM754.973 293.888V299.808C754.973 301.312 754.973 301.408 756.061 301.536V302H752.477V301.52C753.565 301.392 753.565 301.28 753.565 299.792V296.368C753.517 295.52 753.501 295.216 752.525 295.216V294.832L754.973 293.888ZM755.117 291.184C755.117 291.76 754.637 292.24 754.061 292.24C753.469 292.24 752.989 291.776 752.989 291.184C752.989 290.592 753.453 290.112 754.045 290.112C754.637 290.112 755.117 290.592 755.117 291.184ZM759.176 295.904V299.808C759.176 301.312 759.176 301.408 760.248 301.536V302H756.68V301.536C757.768 301.408 757.768 301.312 757.768 299.808V296.368C757.72 295.52 757.704 295.216 756.728 295.216V294.832L759.176 293.888V295.248C759.784 294.592 760.792 294 761.688 294C762.248 294 762.808 294.224 763.208 294.624C763.736 295.216 763.752 295.952 763.752 296.704V299.808C763.752 301.312 763.752 301.408 764.824 301.536V302H761.24V301.536C762.344 301.408 762.344 301.312 762.344 299.808V297.008C762.344 296.048 762.28 294.848 761.016 294.848C760.312 294.848 759.656 295.424 759.176 295.904ZM770.692 302.336L768.532 301.728C767.876 301.936 766.708 302.288 766.708 303.152C766.708 304.208 768.628 304.288 769.444 304.288C770.164 304.288 771.86 304.192 771.86 303.28C771.86 302.688 771.14 302.48 770.692 302.336ZM768.82 300.56L770.084 300.864C771.156 301.136 773.06 301.392 773.06 302.848C773.06 304.608 770.612 304.816 769.268 304.816C768.228 304.816 765.3 304.672 765.3 303.216C765.3 302.08 766.916 301.808 767.716 301.536C767.252 301.36 766.052 301.088 766.052 300.4C766.052 299.728 766.916 299.36 767.476 299.232C766.612 298.736 766.116 297.808 766.116 296.8C766.116 295.056 767.716 294 769.332 294C770.084 294 770.9 294.224 771.476 294.768C771.892 294.352 772.484 293.92 773.124 293.92C773.604 293.92 773.94 294.304 773.94 294.784C773.94 295.168 773.668 295.552 773.284 295.552C772.692 295.552 772.628 294.912 772.068 294.912C771.956 294.912 771.86 294.976 771.764 295.056C772.212 295.488 772.404 296.288 772.404 296.896C772.404 298.592 770.804 299.696 769.268 299.696C768.868 299.696 768.308 299.616 767.94 299.456C767.764 299.52 767.476 299.616 767.476 299.856C767.476 300.288 768.532 300.48 768.82 300.56ZM770.884 296.96C770.884 296.032 770.468 294.528 769.3 294.528C768.084 294.528 767.636 295.904 767.636 296.912C767.636 297.968 768.116 299.168 769.332 299.168C770.532 299.168 770.884 297.952 770.884 296.96ZM660.351 318.416V315.808C659.215 316 657.455 316.768 657.455 318.096C657.455 318.848 657.983 319.328 658.623 319.328C659.215 319.328 659.951 318.864 660.351 318.416ZM660.351 315.28V314.224C660.351 313.44 660.191 312.528 659.231 312.528C658.431 312.528 658.095 313.056 657.919 313.744C657.775 314.24 657.567 314.544 656.991 314.544C656.543 314.544 656.239 314.272 656.239 313.84C656.239 312.512 658.111 312 659.151 312C659.823 312 660.639 312.112 661.183 312.56C661.759 313.04 661.759 313.712 661.759 314.384V318.032C661.759 318.416 661.759 319.12 662.239 319.12C662.511 319.12 662.703 318.928 662.895 318.72L663.103 319.056C662.703 319.648 662.223 320.176 661.471 320.176C660.815 320.176 660.447 319.664 660.383 319.056C659.647 319.648 658.783 320.176 657.823 320.176C656.703 320.176 655.935 319.408 655.935 318.272C655.935 316.144 658.719 315.6 660.351 315.28ZM665.769 314.48V317.808C665.769 319.312 665.769 319.408 666.841 319.536V320H663.305V319.536C664.361 319.408 664.361 319.312 664.361 317.808V314.368C664.313 313.52 664.297 313.216 663.321 313.216V312.832L665.769 311.888V313.776C666.377 313.024 667.337 311.888 668.393 311.888C668.921 311.888 669.385 312.256 669.385 312.816C669.385 313.312 669.049 313.712 668.521 313.712C667.961 313.712 667.753 313.296 667.241 313.296C666.681 313.296 666.041 314.032 665.769 314.48ZM671.687 312.704H670.519V312.32C671.703 311.824 672.423 310.592 672.567 309.376H673.095V312.176H675.335V312.704H673.095V317.552C673.095 318.272 673.015 319.328 674.007 319.328C674.631 319.328 675.015 318.928 675.415 318.528L675.687 318.848C675.079 319.536 674.279 320.176 673.303 320.176C671.895 320.176 671.687 319.024 671.687 317.888V312.704ZM678.161 311.888V317.808C678.161 319.312 678.161 319.408 679.249 319.536V320H675.665V319.52C676.753 319.392 676.753 319.28 676.753 317.792V314.368C676.705 313.52 676.689 313.216 675.713 313.216V312.832L678.161 311.888ZM678.305 309.184C678.305 309.76 677.825 310.24 677.249 310.24C676.657 310.24 676.177 309.776 676.177 309.184C676.177 308.592 676.641 308.112 677.233 308.112C677.825 308.112 678.305 308.592 678.305 309.184ZM685.084 311.888L686.012 314.496L685.628 314.704C684.844 313.696 683.884 312.528 682.588 312.528C681.964 312.528 681.324 312.96 681.324 313.616C681.324 315.568 686.348 314.832 686.348 317.76C686.348 319.136 685.02 320.176 683.74 320.176C683.34 320.176 683.052 320.064 682.684 319.952C682.492 319.888 682.3 319.808 682.092 319.808C681.756 319.808 681.436 319.952 681.164 320.176L680.172 317.456L680.524 317.28C681.132 318.288 682.636 319.648 683.836 319.648C684.572 319.648 685.244 319.088 685.244 318.336C685.244 316.272 680.268 317.168 680.268 314.272C680.268 312.912 681.516 312 682.78 312C683.356 312 683.916 312.256 684.364 312.256C684.668 312.256 684.892 312.112 685.084 311.888ZM688 312.704H686.832V312.32C688.016 311.824 688.736 310.592 688.88 309.376H689.408V312.176H691.648V312.704H689.408V317.552C689.408 318.272 689.328 319.328 690.32 319.328C690.944 319.328 691.328 318.928 691.728 318.528L692 318.848C691.391 319.536 690.592 320.176 689.616 320.176C688.208 320.176 688 319.024 688 317.888V312.704ZM694.473 311.888V317.808C694.473 319.312 694.473 319.408 695.561 319.536V320H691.977V319.52C693.065 319.392 693.065 319.28 693.065 317.792V314.368C693.017 313.52 693.001 313.216 692.025 313.216V312.832L694.473 311.888ZM694.617 309.184C694.617 309.76 694.137 310.24 693.561 310.24C692.969 310.24 692.489 309.776 692.489 309.184C692.489 308.592 692.953 308.112 693.545 308.112C694.137 308.112 694.617 308.592 694.617 309.184ZM702.996 317.872L703.236 318.096C702.468 319.264 701.316 320.176 699.86 320.176C697.764 320.176 696.276 318.272 696.276 316.288C696.276 313.92 697.892 312 700.356 312C701.268 312 702.98 312.56 702.98 313.68C702.98 314.144 702.58 314.48 702.116 314.48C700.932 314.48 701.396 312.528 699.86 312.528C698.212 312.528 697.892 314.704 697.892 315.936C697.892 317.456 698.74 319.328 700.516 319.328C701.604 319.328 702.308 318.624 702.996 317.872ZM714.958 315.6H709.534C709.534 317.168 709.998 319.488 711.998 319.488C713.07 319.488 713.998 318.896 714.622 318.032L714.894 318.288C714.222 319.392 713.102 320.176 711.79 320.176C709.55 320.176 707.918 318.352 707.918 316.16C707.918 314.112 709.342 312 711.582 312C713.582 312 714.958 313.712 714.958 315.6ZM709.614 314.992H713.342C713.438 313.888 712.958 312.528 711.566 312.528C710.206 312.528 709.646 313.904 709.614 314.992ZM720.11 315.808L721.822 317.936C722.302 318.56 723.022 319.52 723.902 319.536V320H720.19V319.536C720.43 319.52 720.958 319.536 720.958 319.184C720.958 318.944 720.574 318.56 720.446 318.4L719.23 316.896L718.35 318.032C718.174 318.288 717.79 318.624 717.79 318.96C717.79 319.488 718.478 319.536 718.862 319.536V320H715.342V319.536C716.414 319.408 717.086 318.432 717.71 317.664L718.782 316.304L716.846 313.872C716.478 313.424 715.918 312.656 715.278 312.64V312.176H719.102V312.64C718.718 312.64 718.142 312.624 718.142 313.056C718.142 313.376 718.574 313.84 718.766 314.08L719.662 315.2L720.462 314.16C720.654 313.904 721.038 313.488 721.038 313.152C721.038 312.64 720.494 312.64 720.11 312.64V312.176H723.486V312.64C722.526 312.576 722.062 313.28 721.534 313.952L720.11 315.808ZM726.564 313.648V318.56C727.028 318.992 727.604 319.488 728.276 319.488C730.02 319.488 730.356 317.296 730.356 315.936C730.356 314.576 729.94 312.688 728.244 312.688C727.684 312.688 726.916 313.232 726.564 313.648ZM726.564 319.2V320.608C726.564 322.112 726.564 322.208 727.636 322.352V322.816H724.068V322.352C725.156 322.208 725.156 322.112 725.156 320.608V314.368C725.124 313.52 725.06 313.216 724.1 313.216V312.832L726.564 311.888V313.024C727.236 312.448 727.94 312 728.836 312C730.836 312 731.892 314.144 731.876 315.888C731.892 317.872 730.9 320.176 728.612 320.176C727.828 320.176 727.092 319.744 726.564 319.2ZM735.081 314.48V317.808C735.081 319.312 735.081 319.408 736.153 319.536V320H732.617V319.536C733.673 319.408 733.673 319.312 733.673 317.808V314.368C733.625 313.52 733.609 313.216 732.633 313.216V312.832L735.081 311.888V313.776C735.689 313.024 736.649 311.888 737.705 311.888C738.233 311.888 738.697 312.256 738.697 312.816C738.697 313.312 738.361 313.712 737.833 313.712C737.273 313.712 737.065 313.296 736.553 313.296C735.993 313.296 735.353 314.032 735.081 314.48ZM746.333 315.6H740.909C740.909 317.168 741.373 319.488 743.373 319.488C744.445 319.488 745.373 318.896 745.997 318.032L746.269 318.288C745.597 319.392 744.477 320.176 743.165 320.176C740.925 320.176 739.293 318.352 739.293 316.16C739.293 314.112 740.717 312 742.957 312C744.957 312 746.333 313.712 746.333 315.6ZM740.989 314.992H744.717C744.813 313.888 744.333 312.528 742.941 312.528C741.581 312.528 741.021 313.904 740.989 314.992ZM752.349 311.888L753.277 314.496L752.893 314.704C752.109 313.696 751.149 312.528 749.853 312.528C749.229 312.528 748.589 312.96 748.589 313.616C748.589 315.568 753.613 314.832 753.613 317.76C753.613 319.136 752.285 320.176 751.005 320.176C750.605 320.176 750.317 320.064 749.949 319.952C749.757 319.888 749.565 319.808 749.357 319.808C749.021 319.808 748.701 319.952 748.429 320.176L747.437 317.456L747.789 317.28C748.397 318.288 749.901 319.648 751.101 319.648C751.837 319.648 752.509 319.088 752.509 318.336C752.509 316.272 747.533 317.168 747.533 314.272C747.533 312.912 748.781 312 750.045 312C750.621 312 751.181 312.256 751.629 312.256C751.933 312.256 752.157 312.112 752.349 311.888ZM759.521 311.888L760.449 314.496L760.065 314.704C759.281 313.696 758.321 312.528 757.025 312.528C756.401 312.528 755.761 312.96 755.761 313.616C755.761 315.568 760.785 314.832 760.785 317.76C760.785 319.136 759.457 320.176 758.177 320.176C757.777 320.176 757.489 320.064 757.121 319.952C756.929 319.888 756.737 319.808 756.529 319.808C756.193 319.808 755.873 319.952 755.601 320.176L754.609 317.456L754.961 317.28C755.569 318.288 757.073 319.648 758.273 319.648C759.009 319.648 759.681 319.088 759.681 318.336C759.681 316.272 754.705 317.168 754.705 314.272C754.705 312.912 755.953 312 757.217 312C757.793 312 758.353 312.256 758.801 312.256C759.105 312.256 759.329 312.112 759.521 311.888ZM763.973 311.888V317.808C763.973 319.312 763.973 319.408 765.061 319.536V320H761.477V319.52C762.565 319.392 762.565 319.28 762.565 317.792V314.368C762.517 313.52 762.501 313.216 761.525 313.216V312.832L763.973 311.888ZM764.117 309.184C764.117 309.76 763.637 310.24 763.061 310.24C762.469 310.24 761.989 309.776 761.989 309.184C761.989 308.592 762.453 308.112 763.045 308.112C763.637 308.112 764.117 308.592 764.117 309.184ZM769.456 320.176C767.408 320.176 765.92 318.192 765.92 316.224C765.92 314.144 767.296 312 769.552 312C771.776 312 773.104 314.176 773.104 316.208C773.104 318.256 771.584 320.176 769.456 320.176ZM769.456 319.648C771.12 319.648 771.488 317.136 771.488 315.904C771.488 314.736 771.12 312.528 769.552 312.528C767.936 312.528 767.536 314.64 767.536 315.872C767.536 317.008 767.904 319.648 769.456 319.648ZM776.614 313.904V317.808C776.614 319.312 776.614 319.408 777.686 319.536V320H774.118V319.536C775.206 319.408 775.206 319.312 775.206 317.808V314.368C775.158 313.52 775.142 313.216 774.166 313.216V312.832L776.614 311.888V313.248C777.222 312.592 778.23 312 779.126 312C779.686 312 780.246 312.224 780.646 312.624C781.174 313.216 781.19 313.952 781.19 314.704V317.808C781.19 319.312 781.19 319.408 782.262 319.536V320H778.678V319.536C779.782 319.408 779.782 319.312 779.782 317.808V315.008C779.782 314.048 779.718 312.848 778.454 312.848C777.75 312.848 777.094 313.424 776.614 313.904ZM783.649 322.528L783.457 322.256C783.905 321.84 784.641 321.152 784.641 320.592C784.641 320.336 784.497 320.256 784.289 320.144C783.857 319.952 783.585 319.664 783.585 319.152C783.585 318.592 784.033 318.16 784.577 318.16C785.393 318.16 785.761 318.944 785.761 319.664C785.761 320.912 784.625 321.92 783.649 322.528ZM676.161 331.904V335.808C676.161 337.312 676.161 337.408 677.233 337.536V338H673.665V337.536C674.753 337.408 674.753 337.312 674.753 335.808V332.368C674.705 331.52 674.689 331.216 673.713 331.216V330.832L676.161 329.888V331.248C676.769 330.592 677.777 330 678.673 330C679.233 330 679.793 330.224 680.193 330.624C680.721 331.216 680.737 331.952 680.737 332.704V335.808C680.737 337.312 680.737 337.408 681.809 337.536V338H678.225V337.536C679.329 337.408 679.329 337.312 679.329 335.808V333.008C679.329 332.048 679.265 330.848 678.001 330.848C677.297 330.848 676.641 331.424 676.161 331.904ZM687.116 336.416V333.808C685.98 334 684.22 334.768 684.22 336.096C684.22 336.848 684.748 337.328 685.388 337.328C685.98 337.328 686.716 336.864 687.116 336.416ZM687.116 333.28V332.224C687.116 331.44 686.956 330.528 685.996 330.528C685.196 330.528 684.86 331.056 684.684 331.744C684.54 332.24 684.332 332.544 683.756 332.544C683.308 332.544 683.004 332.272 683.004 331.84C683.004 330.512 684.876 330 685.916 330C686.588 330 687.404 330.112 687.948 330.56C688.524 331.04 688.524 331.712 688.524 332.384V336.032C688.524 336.416 688.524 337.12 689.004 337.12C689.276 337.12 689.468 336.928 689.66 336.72L689.868 337.056C689.468 337.648 688.988 338.176 688.236 338.176C687.58 338.176 687.212 337.664 687.148 337.056C686.412 337.648 685.548 338.176 684.588 338.176C683.468 338.176 682.7 337.408 682.7 336.272C682.7 334.144 685.484 333.6 687.116 333.28ZM692.534 332.48V335.808C692.534 337.312 692.534 337.408 693.606 337.536V338H690.07V337.536C691.126 337.408 691.126 337.312 691.126 335.808V332.368C691.078 331.52 691.062 331.216 690.086 331.216V330.832L692.534 329.888V331.776C693.142 331.024 694.102 329.888 695.158 329.888C695.686 329.888 696.15 330.256 696.15 330.816C696.15 331.312 695.814 331.712 695.286 331.712C694.726 331.712 694.518 331.296 694.006 331.296C693.446 331.296 692.806 332.032 692.534 332.48ZM699.613 332.48V335.808C699.613 337.312 699.613 337.408 700.685 337.536V338H697.149V337.536C698.205 337.408 698.205 337.312 698.205 335.808V332.368C698.157 331.52 698.141 331.216 697.165 331.216V330.832L699.613 329.888V331.776C700.221 331.024 701.181 329.888 702.237 329.888C702.765 329.888 703.229 330.256 703.229 330.816C703.229 331.312 702.893 331.712 702.365 331.712C701.805 331.712 701.597 331.296 701.085 331.296C700.525 331.296 699.885 332.032 699.613 332.48ZM708.085 336.416V333.808C706.949 334 705.189 334.768 705.189 336.096C705.189 336.848 705.717 337.328 706.357 337.328C706.949 337.328 707.685 336.864 708.085 336.416ZM708.085 333.28V332.224C708.085 331.44 707.925 330.528 706.965 330.528C706.165 330.528 705.829 331.056 705.653 331.744C705.509 332.24 705.301 332.544 704.725 332.544C704.277 332.544 703.973 332.272 703.973 331.84C703.973 330.512 705.845 330 706.885 330C707.557 330 708.373 330.112 708.917 330.56C709.493 331.04 709.493 331.712 709.493 332.384V336.032C709.493 336.416 709.493 337.12 709.973 337.12C710.245 337.12 710.437 336.928 710.629 336.72L710.837 337.056C710.437 337.648 709.957 338.176 709.205 338.176C708.549 338.176 708.181 337.664 708.117 337.056C707.381 337.648 706.517 338.176 705.557 338.176C704.437 338.176 703.669 337.408 703.669 336.272C703.669 334.144 706.453 333.6 708.085 333.28ZM712.015 330.704H710.847V330.32C712.031 329.824 712.751 328.592 712.895 327.376H713.423V330.176H715.663V330.704H713.423V335.552C713.423 336.272 713.343 337.328 714.335 337.328C714.959 337.328 715.343 336.928 715.743 336.528L716.015 336.848C715.407 337.536 714.607 338.176 713.631 338.176C712.223 338.176 712.015 337.024 712.015 335.888V330.704ZM718.489 329.888V335.808C718.489 337.312 718.489 337.408 719.577 337.536V338H715.993V337.52C717.081 337.392 717.081 337.28 717.081 335.792V332.368C717.033 331.52 717.017 331.216 716.041 331.216V330.832L718.489 329.888ZM718.633 327.184C718.633 327.76 718.153 328.24 717.577 328.24C716.985 328.24 716.505 327.776 716.505 327.184C716.505 326.592 716.969 326.112 717.561 326.112C718.153 326.112 718.633 326.592 718.633 327.184ZM723.908 336.016L725.22 332.544C725.332 332.224 725.54 331.776 725.54 331.44C725.54 330.832 725.012 330.64 724.484 330.64V330.176H727.652V330.64C727.412 330.656 727.156 330.656 726.964 330.816C726.66 331.088 726.34 331.952 726.196 332.336L723.94 338H723.172L720.756 331.872C720.516 331.296 720.356 330.656 719.62 330.64V330.176H723.172V330.64C722.756 330.64 722.148 330.704 722.148 331.248C722.148 331.488 722.308 331.904 722.388 332.112L723.908 336.016ZM734.974 333.6H729.55C729.55 335.168 730.014 337.488 732.014 337.488C733.086 337.488 734.014 336.896 734.638 336.032L734.91 336.288C734.238 337.392 733.118 338.176 731.806 338.176C729.566 338.176 727.934 336.352 727.934 334.16C727.934 332.112 729.358 330 731.598 330C733.598 330 734.974 331.712 734.974 333.6ZM729.63 332.992H733.358C733.454 331.888 732.974 330.528 731.582 330.528C730.222 330.528 729.662 331.904 729.63 332.992ZM736.462 340.528L736.27 340.256C736.718 339.84 737.454 339.152 737.454 338.592C737.454 338.336 737.31 338.256 737.102 338.144C736.67 337.952 736.398 337.664 736.398 337.152C736.398 336.592 736.846 336.16 737.39 336.16C738.206 336.16 738.574 336.944 738.574 337.664C738.574 338.912 737.438 339.92 736.462 340.528ZM748.382 336.416V333.808C747.246 334 745.486 334.768 745.486 336.096C745.486 336.848 746.014 337.328 746.654 337.328C747.246 337.328 747.982 336.864 748.382 336.416ZM748.382 333.28V332.224C748.382 331.44 748.222 330.528 747.262 330.528C746.462 330.528 746.126 331.056 745.95 331.744C745.806 332.24 745.598 332.544 745.022 332.544C744.574 332.544 744.27 332.272 744.27 331.84C744.27 330.512 746.142 330 747.182 330C747.854 330 748.67 330.112 749.214 330.56C749.79 331.04 749.79 331.712 749.79 332.384V336.032C749.79 336.416 749.79 337.12 750.27 337.12C750.542 337.12 750.734 336.928 750.926 336.72L751.134 337.056C750.734 337.648 750.254 338.176 749.502 338.176C748.846 338.176 748.478 337.664 748.414 337.056C747.678 337.648 746.814 338.176 745.854 338.176C744.734 338.176 743.966 337.408 743.966 336.272C743.966 334.144 746.75 333.6 748.382 333.28ZM753.848 331.904V335.808C753.848 337.312 753.848 337.408 754.92 337.536V338H751.352V337.536C752.44 337.408 752.44 337.312 752.44 335.808V332.368C752.392 331.52 752.376 331.216 751.4 331.216V330.832L753.848 329.888V331.248C754.456 330.592 755.464 330 756.36 330C756.92 330 757.48 330.224 757.88 330.624C758.408 331.216 758.424 331.952 758.424 332.704V335.808C758.424 337.312 758.424 337.408 759.496 337.536V338H755.912V337.536C757.016 337.408 757.016 337.312 757.016 335.808V333.008C757.016 332.048 756.952 330.848 755.688 330.848C754.984 330.848 754.328 331.424 753.848 331.904ZM765.796 336.496V331.696C765.364 331.232 764.676 330.688 764.02 330.688C762.452 330.688 762.02 332.896 762.02 334.096C762.02 335.344 762.42 337.488 764.02 337.488C764.676 337.488 765.364 336.96 765.796 336.496ZM765.796 331.04V328.512C765.796 327.12 765.572 327.184 764.436 327.104V326.64L767.204 325.728V335.808C767.204 337.312 767.204 337.408 768.292 337.536V338H765.796V337.088C765.204 337.68 764.436 338.176 763.604 338.176C761.46 338.176 760.5 335.968 760.5 334.128C760.5 331.008 762.356 330 763.492 330C764.404 330 765.14 330.48 765.796 331.04ZM661.04 349.648V354.56C661.504 354.992 662.08 355.488 662.752 355.488C664.496 355.488 664.832 353.296 664.832 351.936C664.832 350.576 664.416 348.688 662.72 348.688C662.16 348.688 661.392 349.232 661.04 349.648ZM661.04 355.2V356.608C661.04 358.112 661.04 358.208 662.112 358.352V358.816H658.544V358.352C659.632 358.208 659.632 358.112 659.632 356.608V350.368C659.6 349.52 659.536 349.216 658.576 349.216V348.832L661.04 347.888V349.024C661.712 348.448 662.416 348 663.312 348C665.312 348 666.368 350.144 666.352 351.888C666.368 353.872 665.376 356.176 663.088 356.176C662.304 356.176 661.568 355.744 661.04 355.2ZM669.558 350.48V353.808C669.558 355.312 669.558 355.408 670.63 355.536V356H667.094V355.536C668.15 355.408 668.15 355.312 668.15 353.808V350.368C668.102 349.52 668.086 349.216 667.11 349.216V348.832L669.558 347.888V349.776C670.166 349.024 671.126 347.888 672.182 347.888C672.71 347.888 673.174 348.256 673.174 348.816C673.174 349.312 672.838 349.712 672.31 349.712C671.75 349.712 671.542 349.296 671.03 349.296C670.47 349.296 669.83 350.032 669.558 350.48ZM677.37 356.176C675.322 356.176 673.834 354.192 673.834 352.224C673.834 350.144 675.21 348 677.466 348C679.69 348 681.018 350.176 681.018 352.208C681.018 354.256 679.498 356.176 677.37 356.176ZM677.37 355.648C679.034 355.648 679.402 353.136 679.402 351.904C679.402 350.736 679.034 348.528 677.466 348.528C675.85 348.528 675.45 350.64 675.45 351.872C675.45 353.008 675.818 355.648 677.37 355.648ZM685.744 354.016L687.056 350.544C687.168 350.224 687.376 349.776 687.376 349.44C687.376 348.832 686.848 348.64 686.32 348.64V348.176H689.488V348.64C689.248 348.656 688.992 348.656 688.8 348.816C688.496 349.088 688.176 349.952 688.032 350.336L685.776 356H685.008L682.592 349.872C682.352 349.296 682.192 348.656 681.456 348.64V348.176H685.008V348.64C684.592 348.64 683.984 348.704 683.984 349.248C683.984 349.488 684.144 349.904 684.224 350.112L685.744 354.016ZM693.386 356.176C691.338 356.176 689.85 354.192 689.85 352.224C689.85 350.144 691.226 348 693.482 348C695.706 348 697.034 350.176 697.034 352.208C697.034 354.256 695.514 356.176 693.386 356.176ZM693.386 355.648C695.05 355.648 695.418 353.136 695.418 351.904C695.418 350.736 695.05 348.528 693.482 348.528C691.866 348.528 691.466 350.64 691.466 351.872C691.466 353.008 691.834 355.648 693.386 355.648ZM704.863 353.872L705.103 354.096C704.335 355.264 703.183 356.176 701.727 356.176C699.631 356.176 698.143 354.272 698.143 352.288C698.143 349.92 699.759 348 702.223 348C703.135 348 704.847 348.56 704.847 349.68C704.847 350.144 704.447 350.48 703.983 350.48C702.799 350.48 703.263 348.528 701.727 348.528C700.079 348.528 699.759 350.704 699.759 351.936C699.759 353.456 700.607 355.328 702.383 355.328C703.471 355.328 704.175 354.624 704.863 353.872ZM710.233 354.416V351.808C709.097 352 707.337 352.768 707.337 354.096C707.337 354.848 707.865 355.328 708.505 355.328C709.097 355.328 709.833 354.864 710.233 354.416ZM710.233 351.28V350.224C710.233 349.44 710.073 348.528 709.113 348.528C708.313 348.528 707.977 349.056 707.801 349.744C707.657 350.24 707.449 350.544 706.873 350.544C706.425 350.544 706.121 350.272 706.121 349.84C706.121 348.512 707.993 348 709.033 348C709.705 348 710.521 348.112 711.065 348.56C711.641 349.04 711.641 349.712 711.641 350.384V354.032C711.641 354.416 711.641 355.12 712.121 355.12C712.393 355.12 712.585 354.928 712.777 354.72L712.985 355.056C712.585 355.648 712.105 356.176 711.353 356.176C710.697 356.176 710.329 355.664 710.265 355.056C709.529 355.648 708.665 356.176 707.705 356.176C706.585 356.176 705.817 355.408 705.817 354.272C705.817 352.144 708.601 351.6 710.233 351.28ZM714.164 348.704H712.996V348.32C714.18 347.824 714.9 346.592 715.044 345.376H715.572V348.176H717.812V348.704H715.572V353.552C715.572 354.272 715.492 355.328 716.484 355.328C717.108 355.328 717.492 354.928 717.892 354.528L718.164 354.848C717.556 355.536 716.756 356.176 715.78 356.176C714.372 356.176 714.164 355.024 714.164 353.888V348.704ZM720.637 347.888V353.808C720.637 355.312 720.637 355.408 721.725 355.536V356H718.141V355.52C719.229 355.392 719.229 355.28 719.229 353.792V350.368C719.181 349.52 719.165 349.216 718.189 349.216V348.832L720.637 347.888ZM720.781 345.184C720.781 345.76 720.301 346.24 719.725 346.24C719.133 346.24 718.653 345.776 718.653 345.184C718.653 344.592 719.117 344.112 719.709 344.112C720.301 344.112 720.781 344.592 720.781 345.184ZM726.056 354.016L727.368 350.544C727.48 350.224 727.688 349.776 727.688 349.44C727.688 348.832 727.16 348.64 726.632 348.64V348.176H729.8V348.64C729.56 348.656 729.304 348.656 729.112 348.816C728.808 349.088 728.488 349.952 728.344 350.336L726.088 356H725.32L722.904 349.872C722.664 349.296 722.504 348.656 721.768 348.64V348.176H725.32V348.64C724.904 348.64 724.296 348.704 724.296 349.248C724.296 349.488 724.456 349.904 724.536 350.112L726.056 354.016ZM737.122 351.6H731.698C731.698 353.168 732.162 355.488 734.162 355.488C735.234 355.488 736.162 354.896 736.786 354.032L737.058 354.288C736.386 355.392 735.266 356.176 733.954 356.176C731.714 356.176 730.082 354.352 730.082 352.16C730.082 350.112 731.506 348 733.746 348C735.746 348 737.122 349.712 737.122 351.6ZM731.778 350.992H735.506C735.602 349.888 735.122 348.528 733.73 348.528C732.37 348.528 731.81 349.904 731.778 350.992ZM744.29 349.648V354.56C744.754 354.992 745.33 355.488 746.002 355.488C747.746 355.488 748.082 353.296 748.082 351.936C748.082 350.576 747.666 348.688 745.97 348.688C745.41 348.688 744.642 349.232 744.29 349.648ZM744.29 355.2V356.608C744.29 358.112 744.29 358.208 745.362 358.352V358.816H741.794V358.352C742.882 358.208 742.882 358.112 742.882 356.608V350.368C742.85 349.52 742.786 349.216 741.826 349.216V348.832L744.29 347.888V349.024C744.962 348.448 745.666 348 746.562 348C748.562 348 749.618 350.144 749.602 351.888C749.618 353.872 748.626 356.176 746.338 356.176C745.554 356.176 744.818 355.744 744.29 355.2ZM755.928 356V354.864C755.256 355.536 754.392 356.176 753.4 356.176C752.744 356.176 752.056 355.936 751.672 355.344C751.272 354.72 751.272 353.952 751.272 353.216V350.368C751.224 349.52 751.208 349.216 750.232 349.216V348.832L752.68 347.888V353.632C752.68 354.48 753.016 355.328 753.992 355.328C754.776 355.328 755.4 354.688 755.912 354.192V350.368C755.864 349.52 755.848 349.216 754.872 349.216V348.832L757.32 347.888V353.808C757.32 355.312 757.32 355.408 758.424 355.536V356H755.928ZM761.748 349.712V354.528C762.212 354.896 762.692 355.328 763.348 355.328C764.948 355.328 765.508 353.232 765.508 351.952C765.508 350.672 764.868 348.848 763.3 348.848C762.676 348.848 762.148 349.28 761.748 349.712ZM761.62 354.992L760.516 356.08H760.324V346.512C760.324 345.12 760.1 345.184 758.964 345.104V344.64L761.732 343.728V349.056C762.292 348.496 763.156 348 763.972 348C765.972 348 767.028 350.144 767.028 351.888C767.028 353.728 765.892 356.176 763.764 356.176C762.9 356.176 762.164 355.6 761.62 354.992ZM769.231 353.808V346.512C769.231 345.12 769.007 345.184 767.871 345.104V344.64L770.639 343.728V353.808C770.639 355.312 770.639 355.408 771.743 355.536V356H768.159V355.536C769.231 355.408 769.231 355.312 769.231 353.808ZM774.746 347.888V353.808C774.746 355.312 774.746 355.408 775.834 355.536V356H772.25V355.52C773.338 355.392 773.338 355.28 773.338 353.792V350.368C773.29 349.52 773.274 349.216 772.298 349.216V348.832L774.746 347.888ZM774.89 345.184C774.89 345.76 774.41 346.24 773.834 346.24C773.242 346.24 772.762 345.776 772.762 345.184C772.762 344.592 773.226 344.112 773.818 344.112C774.41 344.112 774.89 344.592 774.89 345.184ZM783.27 353.872L783.51 354.096C782.742 355.264 781.59 356.176 780.134 356.176C778.038 356.176 776.55 354.272 776.55 352.288C776.55 349.92 778.166 348 780.63 348C781.542 348 783.254 348.56 783.254 349.68C783.254 350.144 782.854 350.48 782.39 350.48C781.206 350.48 781.67 348.528 780.134 348.528C778.486 348.528 778.166 350.704 778.166 351.936C778.166 353.456 779.014 355.328 780.79 355.328C781.878 355.328 782.582 354.624 783.27 353.872ZM676.02 365.888V371.808C676.02 373.312 676.02 373.408 677.108 373.536V374H673.524V373.52C674.612 373.392 674.612 373.28 674.612 371.792V368.368C674.564 367.52 674.548 367.216 673.572 367.216V366.832L676.02 365.888ZM676.164 363.184C676.164 363.76 675.684 364.24 675.108 364.24C674.516 364.24 674.036 363.776 674.036 363.184C674.036 362.592 674.5 362.112 675.092 362.112C675.684 362.112 676.164 362.592 676.164 363.184ZM680.223 367.904V371.808C680.223 373.312 680.223 373.408 681.295 373.536V374H677.727V373.536C678.815 373.408 678.815 373.312 678.815 371.808V368.368C678.767 367.52 678.751 367.216 677.775 367.216V366.832L680.223 365.888V367.248C680.831 366.592 681.839 366 682.735 366C683.295 366 683.855 366.224 684.255 366.624C684.783 367.216 684.799 367.952 684.799 368.704V371.808C684.799 373.312 684.799 373.408 685.871 373.536V374H682.287V373.536C683.391 373.408 683.391 373.312 683.391 371.808V369.008C683.391 368.048 683.327 366.848 682.063 366.848C681.359 366.848 680.703 367.424 680.223 367.904ZM687.531 366.704H686.363V366.32C687.547 365.824 688.267 364.592 688.411 363.376H688.939V366.176H691.179V366.704H688.939V371.552C688.939 372.272 688.859 373.328 689.851 373.328C690.475 373.328 690.859 372.928 691.259 372.528L691.531 372.848C690.923 373.536 690.123 374.176 689.147 374.176C687.739 374.176 687.531 373.024 687.531 371.888V366.704ZM698.708 369.6H693.284C693.284 371.168 693.748 373.488 695.748 373.488C696.82 373.488 697.748 372.896 698.372 372.032L698.644 372.288C697.972 373.392 696.852 374.176 695.54 374.176C693.3 374.176 691.668 372.352 691.668 370.16C691.668 368.112 693.092 366 695.332 366C697.332 366 698.708 367.712 698.708 369.6ZM693.364 368.992H697.092C697.188 367.888 696.708 366.528 695.316 366.528C693.956 366.528 693.396 367.904 693.364 368.992ZM701.956 368.48V371.808C701.956 373.312 701.956 373.408 703.028 373.536V374H699.492V373.536C700.548 373.408 700.548 373.312 700.548 371.808V368.368C700.5 367.52 700.484 367.216 699.508 367.216V366.832L701.956 365.888V367.776C702.564 367.024 703.524 365.888 704.58 365.888C705.108 365.888 705.572 366.256 705.572 366.816C705.572 367.312 705.236 367.712 704.708 367.712C704.148 367.712 703.94 367.296 703.428 367.296C702.868 367.296 702.228 368.032 701.956 368.48ZM710.877 372.016L712.189 368.544C712.301 368.224 712.509 367.776 712.509 367.44C712.509 366.832 711.981 366.64 711.453 366.64V366.176H714.621V366.64C714.381 366.656 714.125 366.656 713.933 366.816C713.629 367.088 713.309 367.952 713.165 368.336L710.909 374H710.141L707.725 367.872C707.485 367.296 707.325 366.656 706.588 366.64V366.176H710.141V366.64C709.725 366.64 709.117 366.704 709.117 367.248C709.117 367.488 709.277 367.904 709.357 368.112L710.877 372.016ZM721.943 369.6H716.519C716.519 371.168 716.983 373.488 718.983 373.488C720.055 373.488 720.983 372.896 721.607 372.032L721.879 372.288C721.207 373.392 720.087 374.176 718.775 374.176C716.535 374.176 714.903 372.352 714.903 370.16C714.903 368.112 716.327 366 718.567 366C720.567 366 721.943 367.712 721.943 369.6ZM716.599 368.992H720.327C720.423 367.888 719.943 366.528 718.551 366.528C717.191 366.528 716.631 367.904 716.599 368.992ZM725.239 367.904V371.808C725.239 373.312 725.239 373.408 726.311 373.536V374H722.743V373.536C723.831 373.408 723.831 373.312 723.831 371.808V368.368C723.783 367.52 723.767 367.216 722.791 367.216V366.832L725.239 365.888V367.248C725.847 366.592 726.855 366 727.751 366C728.311 366 728.871 366.224 729.271 366.624C729.799 367.216 729.815 367.952 729.815 368.704V371.808C729.815 373.312 729.815 373.408 730.887 373.536V374H727.303V373.536C728.407 373.408 728.407 373.312 728.407 371.808V369.008C728.407 368.048 728.343 366.848 727.079 366.848C726.375 366.848 725.719 367.424 725.239 367.904ZM732.546 366.704H731.378V366.32C732.562 365.824 733.282 364.592 733.426 363.376H733.954V366.176H736.194V366.704H733.954V371.552C733.954 372.272 733.874 373.328 734.866 373.328C735.49 373.328 735.874 372.928 736.274 372.528L736.546 372.848C735.938 373.536 735.138 374.176 734.162 374.176C732.754 374.176 732.546 373.024 732.546 371.888V366.704ZM739.02 365.888V371.808C739.02 373.312 739.02 373.408 740.108 373.536V374H736.524V373.52C737.612 373.392 737.612 373.28 737.612 371.792V368.368C737.564 367.52 737.548 367.216 736.572 367.216V366.832L739.02 365.888ZM739.164 363.184C739.164 363.76 738.684 364.24 738.108 364.24C737.516 364.24 737.036 363.776 737.036 363.184C737.036 362.592 737.5 362.112 738.092 362.112C738.684 362.112 739.164 362.592 739.164 363.184ZM744.503 374.176C742.455 374.176 740.967 372.192 740.967 370.224C740.967 368.144 742.343 366 744.599 366C746.823 366 748.151 368.176 748.151 370.208C748.151 372.256 746.631 374.176 744.503 374.176ZM744.503 373.648C746.167 373.648 746.535 371.136 746.535 369.904C746.535 368.736 746.167 366.528 744.599 366.528C742.983 366.528 742.583 368.64 742.583 369.872C742.583 371.008 742.951 373.648 744.503 373.648ZM751.661 367.904V371.808C751.661 373.312 751.661 373.408 752.733 373.536V374H749.165V373.536C750.253 373.408 750.253 373.312 750.253 371.808V368.368C750.205 367.52 750.189 367.216 749.213 367.216V366.832L751.661 365.888V367.248C752.269 366.592 753.277 366 754.173 366C754.733 366 755.293 366.224 755.693 366.624C756.221 367.216 756.237 367.952 756.237 368.704V371.808C756.237 373.312 756.237 373.408 757.309 373.536V374H753.725V373.536C754.829 373.408 754.829 373.312 754.829 371.808V369.008C754.829 368.048 754.765 366.848 753.501 366.848C752.797 366.848 752.141 367.424 751.661 367.904ZM763.224 365.888L764.152 368.496L763.768 368.704C762.984 367.696 762.024 366.528 760.728 366.528C760.104 366.528 759.464 366.96 759.464 367.616C759.464 369.568 764.488 368.832 764.488 371.76C764.488 373.136 763.16 374.176 761.88 374.176C761.48 374.176 761.192 374.064 760.824 373.952C760.632 373.888 760.44 373.808 760.232 373.808C759.896 373.808 759.576 373.952 759.304 374.176L758.312 371.456L758.664 371.28C759.272 372.288 760.776 373.648 761.976 373.648C762.712 373.648 763.384 373.088 763.384 372.336C763.384 370.272 758.408 371.168 758.408 368.272C758.408 366.912 759.656 366 760.92 366C761.496 366 762.056 366.256 762.504 366.256C762.808 366.256 763.032 366.112 763.224 365.888ZM765.82 373.184C765.82 372.624 766.252 372.16 766.812 372.16C767.388 372.16 767.836 372.624 767.836 373.2C767.836 373.728 767.372 374.176 766.812 374.176C766.284 374.176 765.82 373.728 765.82 373.184Z" fill="black"/>
<rect x="181" y="451" width="90" height="90" stroke="black"/>
<rect x="271" y="451" width="90" height="90" stroke="black"/>
<rect x="361" y="451" width="90" height="90" stroke="black"/>
<rect x="451" y="451" width="90" height="90" stroke="black"/>
<rect x="541" y="451" width="90" height="90" stroke="black"/>
<rect x="631" y="451" width="90" height="90" stroke="black"/>
<rect x="721" y="451" width="90" height="90" stroke="black"/>
<rect x="811" y="451" width="90" height="90" stroke="black"/>
<rect x="901" y="451" width="90" height="90" stroke="black"/>
<rect x="991" y="451" width="90" height="90" stroke="black"/>
<rect x="1081" y="451" width="90" height="90" stroke="black"/>
<rect x="1171" y="451" width="90" height="90" stroke="black"/>
<rect x="1261" y="451" width="90" height="90" stroke="black"/>
<rect x="1351" y="451" width="90" height="90" stroke="black"/>
<rect x="1" y="541" width="90" height="90" stroke="black"/>
<rect x="91" y="541" width="90" height="90" stroke="black"/>
<rect x="181" y="541" width="90" height="90" stroke="black"/>
<rect x="271" y="541" width="90" height="90" stroke="black"/>
<rect x="361" y="541" width="90" height="90" stroke="black"/>
<rect x="451" y="541" width="90" height="90" stroke="black"/>
<rect x="541" y="541" width="90" height="90" stroke="black"/>
<rect x="631" y="541" width="90" height="90" stroke="black"/>
<rect x="721" y="541" width="90" height="90" stroke="black"/>
<rect x="811" y="541" width="90" height="90" stroke="black"/>
<rect x="901" y="541" width="90" height="90" stroke="black"/>
<rect x="991" y="541" width="90" height="90" stroke="black"/>
<rect x="1081" y="541" width="90" height="90" stroke="black"/>
<rect x="1171" y="541" width="90" height="90" stroke="black"/>
<rect x="1261" y="541" width="90" height="90" stroke="black"/>
<rect x="1351" y="541" width="90" height="90" stroke="black"/>
<defs>
<clipPath id="clip0_405_407">
<rect x="991" y="1" width="90" height="90" fill="white"/>
</clipPath>
<clipPath id="clip1_405_407">
<rect x="1081" y="1" width="90" height="90" fill="white"/>
</clipPath>
<clipPath id="clip2_405_407">
<rect x="1171" y="1" width="90" height="90" fill="white"/>
</clipPath>
<clipPath id="clip3_405_407">
<rect x="271" y="91" width="90" height="90" fill="white"/>
</clipPath>
<clipPath id="clip4_405_407">
<rect x="361" y="91" width="90" height="90" fill="white"/>
</clipPath>
<clipPath id="clip5_405_407">
<rect x="991" y="91" width="90" height="90" fill="white"/>
</clipPath>
<clipPath id="clip6_405_407">
<rect x="1081" y="91" width="90" height="90" fill="white"/>
</clipPath>
<clipPath id="clip7_405_407">
<rect x="1171" y="91" width="90" height="90" fill="white"/>
</clipPath>
<clipPath id="clip8_405_407">
<rect x="991" y="181" width="90" height="90" fill="white"/>
</clipPath>
<clipPath id="clip9_405_407">
<rect x="1081" y="181" width="90" height="90" fill="white"/>
</clipPath>
<clipPath id="clip10_405_407">
<rect x="1171" y="181" width="90" height="90" fill="white"/>
</clipPath>
<clipPath id="clip11_405_407">
<rect x="811" y="361" width="90" height="90" fill="white"/>
</clipPath>
<clipPath id="clip12_405_407">
<rect x="991" y="451" width="90" height="90" transform="rotate(-180 991 451)" fill="white"/>
</clipPath>
</defs>
</svg>
