<svg width="630" height="51" viewBox="0 0 630 51" fill="none" xmlns="http://www.w3.org/2000/svg">
<rect y="1" width="720" height="50" fill="#EDF851"/>
<rect y="1" width="720" height="50" stroke="black"/>
<path d="M33.504 26.864L33.936 27.056L32.832 30H24.544V29.472C25.856 29.472 26.064 29.056 26.064 27.28V21.008C26.064 19.248 25.856 18.816 24.544 18.816V18.288H29.184V18.816C27.856 18.816 27.648 19.248 27.648 21.008V27.6C27.648 29.008 27.776 29.472 29.36 29.472C31.504 29.472 32.448 28.656 33.504 26.864ZM40.8176 25.6H35.3936C35.3936 27.168 35.8576 29.488 37.8576 29.488C38.9296 29.488 39.8576 28.896 40.4816 28.032L40.7536 28.288C40.0816 29.392 38.9616 30.176 37.6496 30.176C35.4096 30.176 33.7776 28.352 33.7776 26.16C33.7776 24.112 35.2016 22 37.4416 22C39.4416 22 40.8176 23.712 40.8176 25.6ZM35.4736 24.992H39.2016C39.2976 23.888 38.8176 22.528 37.4256 22.528C36.0656 22.528 35.5056 23.904 35.4736 24.992ZM46.2256 28.416V25.808C45.0896 26 43.3296 26.768 43.3296 28.096C43.3296 28.848 43.8576 29.328 44.4976 29.328C45.0896 29.328 45.8256 28.864 46.2256 28.416ZM46.2256 25.28V24.224C46.2256 23.44 46.0656 22.528 45.1056 22.528C44.3056 22.528 43.9696 23.056 43.7936 23.744C43.6496 24.24 43.4416 24.544 42.8656 24.544C42.4176 24.544 42.1136 24.272 42.1136 23.84C42.1136 22.512 43.9856 22 45.0256 22C45.6976 22 46.5136 22.112 47.0576 22.56C47.6336 23.04 47.6336 23.712 47.6336 24.384V28.032C47.6336 28.416 47.6336 29.12 48.1136 29.12C48.3856 29.12 48.5776 28.928 48.7696 28.72L48.9776 29.056C48.5776 29.648 48.0976 30.176 47.3456 30.176C46.6896 30.176 46.3216 29.664 46.2576 29.056C45.5216 29.648 44.6576 30.176 43.6976 30.176C42.5776 30.176 41.8096 29.408 41.8096 28.272C41.8096 26.144 44.5936 25.6 46.2256 25.28ZM51.6438 24.48V27.808C51.6438 29.312 51.6438 29.408 52.7158 29.536V30H49.1798V29.536C50.2358 29.408 50.2358 29.312 50.2358 27.808V24.368C50.1878 23.52 50.1718 23.216 49.1958 23.216V22.832L51.6438 21.888V23.776C52.2518 23.024 53.2118 21.888 54.2678 21.888C54.7958 21.888 55.2598 22.256 55.2598 22.816C55.2598 23.312 54.9238 23.712 54.3958 23.712C53.8358 23.712 53.6278 23.296 53.1158 23.296C52.5558 23.296 51.9158 24.032 51.6438 24.48ZM58.7543 23.904V27.808C58.7543 29.312 58.7543 29.408 59.8263 29.536V30H56.2583V29.536C57.3463 29.408 57.3463 29.312 57.3463 27.808V24.368C57.2983 23.52 57.2823 23.216 56.3063 23.216V22.832L58.7543 21.888V23.248C59.3623 22.592 60.3703 22 61.2663 22C61.8263 22 62.3863 22.224 62.7863 22.624C63.3143 23.216 63.3303 23.952 63.3303 24.704V27.808C63.3303 29.312 63.3303 29.408 64.4023 29.536V30H60.8183V29.536C61.9223 29.408 61.9223 29.312 61.9223 27.808V25.008C61.9223 24.048 61.8583 22.848 60.5943 22.848C59.8903 22.848 59.2343 23.424 58.7543 23.904ZM73.374 18.288L74.878 17.888L77.79 26.592C77.998 27.216 78.414 28.544 78.846 29.008C79.118 29.312 79.486 29.424 79.886 29.472V30H75.182V29.472C75.726 29.424 76.734 29.584 76.734 28.752C76.734 28.496 76.558 27.968 76.462 27.728L75.806 25.76H71.726L71.518 26.368C71.358 26.832 70.878 28.08 70.878 28.544C70.878 29.36 71.726 29.472 72.382 29.472V30H68.286V29.472C69.662 29.456 70.094 28.128 70.462 27.024L73.374 18.288ZM75.582 25.024L73.79 19.648L71.982 25.024H75.582ZM82.1773 23.712V28.528C82.6413 28.896 83.1213 29.328 83.7773 29.328C85.3773 29.328 85.9373 27.232 85.9373 25.952C85.9373 24.672 85.2973 22.848 83.7293 22.848C83.1053 22.848 82.5773 23.28 82.1773 23.712ZM82.0493 28.992L80.9453 30.08H80.7533V20.512C80.7533 19.12 80.5293 19.184 79.3933 19.104V18.64L82.1613 17.728V23.056C82.7213 22.496 83.5853 22 84.4013 22C86.4013 22 87.4573 24.144 87.4573 25.888C87.4573 27.728 86.3213 30.176 84.1933 30.176C83.3293 30.176 82.5933 29.6 82.0493 28.992ZM92.253 30.176C90.205 30.176 88.717 28.192 88.717 26.224C88.717 24.144 90.093 22 92.349 22C94.573 22 95.901 24.176 95.901 26.208C95.901 28.256 94.381 30.176 92.253 30.176ZM92.253 29.648C93.917 29.648 94.285 27.136 94.285 25.904C94.285 24.736 93.917 22.528 92.349 22.528C90.733 22.528 90.333 24.64 90.333 25.872C90.333 27.008 90.701 29.648 92.253 29.648ZM102.483 30V28.864C101.811 29.536 100.947 30.176 99.9545 30.176C99.2985 30.176 98.6105 29.936 98.2265 29.344C97.8265 28.72 97.8265 27.952 97.8265 27.216V24.368C97.7785 23.52 97.7625 23.216 96.7865 23.216V22.832L99.2345 21.888V27.632C99.2345 28.48 99.5705 29.328 100.547 29.328C101.331 29.328 101.955 28.688 102.467 28.192V24.368C102.419 23.52 102.403 23.216 101.427 23.216V22.832L103.875 21.888V27.808C103.875 29.312 103.875 29.408 104.979 29.536V30H102.483ZM106.718 22.704H105.55V22.32C106.734 21.824 107.454 20.592 107.598 19.376H108.126V22.176H110.366V22.704H108.126V27.552C108.126 28.272 108.046 29.328 109.038 29.328C109.662 29.328 110.046 28.928 110.446 28.528L110.718 28.848C110.11 29.536 109.31 30.176 108.334 30.176C106.926 30.176 106.718 29.024 106.718 27.888V22.704ZM123.656 25.376V21.008C123.656 19.248 123.448 18.816 122.216 18.816V18.288H125.88V18.816C124.6 18.816 124.392 19.248 124.392 21.008V25.952C124.392 28.784 123.096 30.176 120.248 30.176C117.816 30.176 116.2 28.896 116.2 26.416V21.008C116.2 19.248 115.992 18.816 114.792 18.816V18.288H119.32V18.816C117.992 18.816 117.784 19.248 117.784 21.008V25.504C117.784 27.616 118.2 29.536 120.712 29.52C123.368 29.536 123.656 27.536 123.656 25.376ZM131.709 21.888L132.637 24.496L132.253 24.704C131.469 23.696 130.509 22.528 129.213 22.528C128.589 22.528 127.949 22.96 127.949 23.616C127.949 25.568 132.973 24.832 132.973 27.76C132.973 29.136 131.645 30.176 130.365 30.176C129.965 30.176 129.677 30.064 129.309 29.952C129.117 29.888 128.925 29.808 128.717 29.808C128.381 29.808 128.061 29.952 127.789 30.176L126.797 27.456L127.149 27.28C127.757 28.288 129.261 29.648 130.461 29.648C131.197 29.648 131.869 29.088 131.869 28.336C131.869 26.272 126.893 27.168 126.893 24.272C126.893 22.912 128.141 22 129.405 22C129.981 22 130.541 22.256 130.989 22.256C131.293 22.256 131.517 22.112 131.709 21.888Z" fill="black"/>
</svg>
