<svg width="1440" height="205" viewBox="0 0 1440 205" fill="none" xmlns="http://www.w3.org/2000/svg">
<path d="M51.424 162.686C45.952 156.254 42.976 147.614 42.976 137.726C42.976 127.838 45.952 119.198 51.424 112.766C57.28 105.95 65.536 102.206 75.04 102.206C84.544 102.206 92.8 105.95 98.656 112.766C104.128 119.198 107.104 127.838 107.104 137.726C107.104 147.614 104.128 156.254 98.656 162.686C92.8 169.502 84.544 173.246 75.04 173.246C65.536 173.246 57.28 169.502 51.424 162.686ZM75.04 162.398C80.896 162.398 85.696 160.094 89.344 155.582C92.992 151.07 94.816 145.118 94.816 137.726C94.816 130.334 92.992 124.382 89.344 119.87C85.696 115.358 80.896 113.054 75.04 113.054C69.184 113.054 64.384 115.358 60.736 119.87C57.088 124.382 55.264 130.334 55.264 137.726C55.264 145.118 57.088 151.07 60.736 155.582C64.384 160.094 69.184 162.398 75.04 162.398ZM142.381 173.15C125.005 173.15 114.637 162.782 114.637 144.83V103.262H126.925V144.446C126.925 156.062 132.397 162.302 142.381 162.302C152.461 162.302 157.933 156.062 157.933 144.446V103.262H170.221V144.83C170.221 162.878 159.949 173.15 142.381 173.15ZM204.72 145.502H193.584V172.19H181.296V103.262H208.848C224.688 103.262 233.808 110.942 233.808 124.382C233.808 135.038 228.144 142.142 217.776 144.542L235.536 172.19H221.52L204.72 145.502ZM193.584 113.822V134.942H208.176C216.912 134.942 221.712 131.198 221.712 124.382C221.712 117.47 217.008 113.822 208.176 113.822H193.584ZM275.22 121.022C272.148 125.342 270.612 131.198 270.612 137.726C270.612 144.254 272.148 150.11 275.22 154.43C278.676 159.518 283.956 162.398 290.004 162.398C297.972 162.398 303.828 157.598 306.036 149.438L317.556 153.374C313.332 166.046 303.444 173.246 290.004 173.246C280.692 173.246 272.34 169.406 266.58 162.494C261.204 156.062 258.324 147.422 258.324 137.726C258.324 128.03 261.204 119.39 266.58 112.958C272.34 106.046 280.692 102.206 290.004 102.206C303.444 102.206 313.332 109.406 317.556 122.078L306.036 126.014C303.828 117.854 297.972 113.054 290.004 113.054C283.956 113.054 278.676 115.934 275.22 121.022ZM316.941 172.19L343.053 103.262H356.973L383.085 172.19H370.701L364.749 156.446H334.989L329.133 172.19H316.941ZM360.717 145.694L349.773 116.894L339.021 145.694H360.717ZM433.007 103.262V114.014H410.831V172.19H398.543V114.014H376.367V103.262H433.007ZM426.302 172.19L452.414 103.262H466.335L492.447 172.19H480.063L474.111 156.446H444.351L438.494 172.19H426.302ZM470.079 145.694L459.135 116.894L448.382 145.694H470.079ZM543.709 172.19H498.973V103.262H511.261V161.438H543.709V172.19ZM553.159 162.686C547.687 156.254 544.711 147.614 544.711 137.726C544.711 127.838 547.687 119.198 553.159 112.766C559.015 105.95 567.271 102.206 576.775 102.206C586.279 102.206 594.535 105.95 600.391 112.766C605.863 119.198 608.839 127.838 608.839 137.726C608.839 147.614 605.863 156.254 600.391 162.686C594.535 169.502 586.279 173.246 576.775 173.246C567.271 173.246 559.015 169.502 553.159 162.686ZM576.775 162.398C582.631 162.398 587.431 160.094 591.079 155.582C594.727 151.07 596.551 145.118 596.551 137.726C596.551 130.334 594.727 124.382 591.079 119.87C587.431 115.358 582.631 113.054 576.775 113.054C570.919 113.054 566.119 115.358 562.471 119.87C558.823 124.382 556.999 130.334 556.999 137.726C556.999 145.118 558.823 151.07 562.471 155.582C566.119 160.094 570.919 162.398 576.775 162.398ZM675.209 172.19H663.977V165.086C661.001 170.078 653.897 173.246 645.449 173.246C636.233 173.246 628.169 169.406 622.409 162.494C617.129 156.254 614.345 147.614 614.345 138.014C614.345 128.318 617.321 119.486 622.697 112.958C628.553 106.046 636.905 102.206 646.217 102.206C659.753 102.206 669.737 109.31 674.057 121.982L662.345 125.918C660.329 117.758 654.473 113.054 646.313 113.054C640.457 113.054 635.753 115.358 632.105 119.966C628.457 124.478 626.633 130.43 626.633 137.822C626.633 145.214 628.457 151.262 632.105 155.87C635.753 160.382 640.553 162.686 646.505 162.686C656.201 162.686 663.017 155.87 663.401 145.79H645.257V135.038H675.209V172.19ZM713.375 173.15C695.999 173.15 685.631 162.782 685.631 144.83V103.262H697.919V144.446C697.919 156.062 703.391 162.302 713.375 162.302C723.455 162.302 728.927 156.062 728.927 144.446V103.262H741.215V144.83C741.215 162.878 730.943 173.15 713.375 173.15ZM752.289 172.19V103.262H798.945V114.014H764.385V131.294H793.473V142.046H764.385V161.438H798.945V172.19H752.289Z" fill="black"/>
<path d="M1299.81 130.19C1299.81 102.576 1277.42 80.19 1249.81 80.19C1222.2 80.19 1199.81 102.576 1199.81 130.19C1199.81 157.804 1222.2 180.19 1249.81 180.19C1277.42 180.19 1299.81 157.804 1299.81 130.19Z" stroke="black" stroke-width="2" stroke-miterlimit="10"/>
<g clip-path="url(#clip0_606_3342)">
<path d="M1399 179.19L1300.52 80.71" stroke="black" stroke-width="2" stroke-miterlimit="10"/>
<path d="M1399 80.71V179.19H1300.52" stroke="black" stroke-width="2" stroke-miterlimit="10"/>
</g>
<defs>
<clipPath id="clip0_606_3342">
<rect width="100.19" height="100.19" fill="white" transform="translate(1299.81 80)"/>
</clipPath>
</defs>
</svg>
