<svg width="1440" height="121" viewBox="0 0 1440 121" fill="none" xmlns="http://www.w3.org/2000/svg">
<path d="M196.987 77.5505C193.106 77.5701 191.314 81.4513 187.951 82.4326C180.959 86.6507 174.271 91.3912 166.689 94.5547C164.443 95.4921 162.046 97.3668 159.713 95.1503C157.067 92.641 158.365 89.7117 159.6 87.0071C160.635 84.7369 161.846 82.5449 162.979 80.3138C175.428 64.3153 189.469 49.5227 199.443 31.6495C203.627 24.1458 201.371 18.7072 193.023 17.3744C185.251 16.1343 177.464 16.0611 169.614 16.9301C163.95 17.555 158.39 19.337 152.609 18.7218C149.939 18.4387 146.59 17.4379 148.801 14.2352C152.951 8.23031 148.084 8.77221 145.067 8.6404C133.008 8.1229 120.915 7.62982 109.154 11.2816C102.31 10.4712 95.9581 13.2442 89.3624 14.1962C84.6317 14.8797 79.9108 15.8951 75.1312 16.4273C63.5266 18.0237 52.0684 21.446 40 18.5314C51.7999 16.1099 63.5998 13.6933 75.3949 11.2718C86.8726 10.9545 97.9304 8.00573 109.12 5.87716C119.699 3.18715 130.523 3.09927 141.263 3.7437C147.137 4.09521 155.226 1.89829 156.061 12.175C156.242 14.3866 158.844 13.2442 160.406 12.9854C170.258 11.3695 180.178 10.935 190.128 11.4183C205.15 12.1457 210.354 21.3093 203.222 34.6129C196.479 47.1939 186.715 57.5537 177.659 68.4162C175.36 71.1746 172.714 73.6547 171.693 77.2576C171.371 77.4529 171.049 77.6482 170.727 77.8435C171.298 78.6392 171.615 77.8874 172.011 77.6335C173.011 78.3903 174.017 79.1421 175.028 79.8988C168.657 78.937 165.356 82.6425 163.037 87.8224C162.622 88.7451 161.841 89.7215 162.71 90.693C163.584 91.6645 164.692 91.0933 165.6 90.6637C171.435 87.8858 177.498 85.4741 182.087 80.6458C208.89 63.6465 234.603 45.1581 259.272 25.171C263.979 21.3581 267.547 16.2173 273.206 13.4834C275.207 12.5167 277.629 10.7836 276.726 8.09849C275.793 5.33037 272.84 5.82834 270.623 6.08221C259.053 7.39548 247.502 8.85033 235.956 10.3345C233.935 10.5932 231.967 11.2914 228.73 10.2027C241.077 6.20426 252.652 4.26608 264.276 2.53784C269.09 1.82018 273.904 1.10251 278.732 0.453202C281.271 0.111459 284.146 -0.327926 285.675 2.2205C287.149 4.68106 284.971 6.52159 283.6 8.37677C275.681 19.088 265.023 26.8309 254.595 34.7301C235.521 49.1761 216.203 63.2901 196.987 77.5457V77.5505Z" fill="black"/>
</svg>
