<svg width="152" height="30" viewBox="0 0 152 30" fill="none" xmlns="http://www.w3.org/2000/svg">
<path d="M11.0995 0H22.0899L32.6611 30H23.0083L21.418 25.2353H11.4755L9.88521 30H0.52832L11.0995 0ZM16.4498 10.4849L13.9842 17.7954H18.9154L16.4498 10.4849Z" fill="black"/>
<path d="M43.8115 20.8095V30H34.3252V0H47.9845C55.8004 0 60.3926 3.8833 60.3926 10.4048C60.3926 14.4175 58.4263 17.6351 54.8758 19.3487L61.4343 30H50.5734L45.3094 20.8095H43.8054H43.8115ZM43.8115 13.4559H47.4853C49.7844 13.4559 51.0357 12.4944 51.0357 10.7006C51.0357 8.90693 49.8214 7.85905 47.4853 7.85905H43.8115V13.4559Z" fill="black"/>
<path d="M89.2278 7.93918H80.7893V30H71.303V7.93918H62.8645V0H89.2278V7.93918Z" fill="black"/>
<path d="M151.465 30H142.108L140.518 25.2353H130.576L128.985 30H119.333L129.91 0H140.9L151.471 30H151.465ZM133.084 17.8015H138.015L135.55 10.4911L133.084 17.8015Z" fill="black"/>
<path d="M106.678 20.8095L101.414 30H90.553L97.1114 19.3487C93.561 17.6351 91.5947 14.4175 91.5947 10.4048C91.5947 3.88946 96.193 0 104.003 0H117.662V30H108.176V20.8095H106.672H106.678ZM108.182 7.85905H104.508C102.166 7.85905 100.958 8.86378 100.958 10.7006C100.958 12.5375 102.209 13.4559 104.508 13.4559H108.182V7.85905Z" fill="black"/>
</svg>
