<svg width="1360" height="18" viewBox="0 0 1360 18" fill="none" xmlns="http://www.w3.org/2000/svg">
<path d="M1117.74 4.032C1118.84 5.12 1119.43 6.608 1119.43 8.256C1119.43 9.872 1118.82 11.376 1117.74 12.464C1116.65 13.568 1115.14 14.176 1113.53 14.176C1111.91 14.176 1110.41 13.568 1109.3 12.48C1108.22 11.392 1107.61 9.904 1107.61 8.256C1107.61 6.608 1108.22 5.12 1109.3 4.032C1110.39 2.944 1111.91 2.336 1113.53 2.336C1115.14 2.336 1116.65 2.944 1117.74 4.032ZM1117 11.744C1117.9 10.832 1118.39 9.6 1118.39 8.256C1118.39 6.912 1117.9 5.664 1117 4.768C1116.1 3.872 1114.87 3.36 1113.53 3.36C1112.18 3.36 1110.95 3.856 1110.04 4.768C1109.14 5.664 1108.65 6.896 1108.65 8.256C1108.65 9.6 1109.14 10.832 1110.06 11.744C1110.95 12.64 1112.18 13.152 1113.53 13.152C1114.86 13.152 1116.09 12.64 1117 11.744ZM1113.61 11.6C1112.7 11.6 1111.94 11.296 1111.35 10.672C1110.78 10.048 1110.49 9.248 1110.49 8.24C1110.49 7.232 1110.78 6.432 1111.35 5.808C1111.94 5.184 1112.7 4.88 1113.61 4.88C1114.97 4.88 1115.93 5.552 1116.36 6.784L1114.79 7.344C1114.66 6.72 1114.2 6.352 1113.61 6.352C1112.73 6.352 1112.18 7.088 1112.18 8.24C1112.18 9.392 1112.73 10.128 1113.61 10.128C1114.23 10.128 1114.66 9.76 1114.79 9.136L1116.36 9.696C1115.93 10.928 1114.97 11.6 1113.61 11.6ZM1123.94 14V12.336L1126.82 9.968C1127.41 9.488 1127.82 9.136 1128.06 8.928C1128.3 8.704 1128.53 8.496 1128.7 8.304C1129.46 7.52 1129.79 6.816 1129.79 6.112C1129.79 4.896 1129.01 4.08 1127.84 4.08C1126.69 4.08 1125.86 4.96 1125.86 6.16C1125.86 6.528 1125.92 6.912 1126.05 7.248H1124.14C1124 6.8 1123.94 6.496 1123.94 6.048C1123.94 5.008 1124.35 4.064 1125.12 3.36C1125.84 2.704 1126.85 2.336 1127.89 2.336C1129.07 2.336 1130.02 2.672 1130.74 3.344C1131.46 4 1131.82 4.88 1131.82 5.984C1131.82 6.928 1131.5 7.792 1130.82 8.672C1130.35 9.264 1129.74 9.84 1128.67 10.688L1126.75 12.208H1131.97V14H1123.94ZM1137.34 14.176C1135.95 14.176 1134.86 13.648 1134.04 12.576C1133.23 11.504 1132.83 10.064 1132.83 8.256C1132.83 6.448 1133.23 5.024 1134.04 3.952C1134.86 2.88 1135.95 2.336 1137.34 2.336C1138.73 2.336 1139.82 2.88 1140.63 3.952C1141.45 5.024 1141.85 6.448 1141.85 8.256C1141.85 10.064 1141.45 11.504 1140.63 12.576C1139.82 13.648 1138.73 14.176 1137.34 14.176ZM1137.34 4.112C1135.75 4.112 1134.87 5.632 1134.87 8.256C1134.87 10.88 1135.75 12.4 1137.34 12.4C1138.92 12.4 1139.8 10.88 1139.8 8.256C1139.8 5.632 1138.92 4.112 1137.34 4.112ZM1142.83 14V12.336L1145.71 9.968C1146.3 9.488 1146.71 9.136 1146.95 8.928C1147.19 8.704 1147.42 8.496 1147.59 8.304C1148.35 7.52 1148.68 6.816 1148.68 6.112C1148.68 4.896 1147.9 4.08 1146.73 4.08C1145.58 4.08 1144.75 4.96 1144.75 6.16C1144.75 6.528 1144.81 6.912 1144.94 7.248H1143.03C1142.89 6.8 1142.83 6.496 1142.83 6.048C1142.83 5.008 1143.24 4.064 1144.01 3.36C1144.73 2.704 1145.74 2.336 1146.78 2.336C1147.96 2.336 1148.91 2.672 1149.63 3.344C1150.35 4 1150.71 4.88 1150.71 5.984C1150.71 6.928 1150.39 7.792 1149.71 8.672C1149.24 9.264 1148.63 9.84 1147.56 10.688L1145.64 12.208H1150.86V14H1142.83ZM1155.86 8C1155.11 8 1154.45 8.32 1154.07 8.848L1152.21 8.592L1152.72 2.512H1159.19V4.304H1154.29L1154.04 7.12C1154.56 6.624 1155.32 6.336 1156.13 6.336C1157.24 6.336 1158.18 6.736 1158.87 7.456C1159.51 8.144 1159.88 9.12 1159.88 10.208C1159.88 11.312 1159.44 12.32 1158.66 13.072C1157.91 13.776 1156.88 14.176 1155.75 14.176C1153.44 14.176 1151.86 12.896 1151.49 10.72L1153.46 10.368C1153.65 11.664 1154.53 12.48 1155.75 12.48C1156.37 12.48 1156.9 12.272 1157.32 11.856C1157.75 11.424 1157.96 10.896 1157.96 10.272C1157.96 8.944 1157.09 8 1155.86 8ZM1163.82 14L1168.17 2.512H1170.49L1174.84 14H1172.78L1171.78 11.376H1166.82L1165.85 14H1163.82ZM1171.11 9.584L1169.29 4.784L1167.5 9.584H1171.11ZM1179.99 9.552H1178.14V14H1176.09V2.512H1180.68C1183.32 2.512 1184.84 3.792 1184.84 6.032C1184.84 7.808 1183.9 8.992 1182.17 9.392L1185.13 14H1182.79L1179.99 9.552ZM1178.14 4.272V7.792H1180.57C1182.02 7.792 1182.82 7.168 1182.82 6.032C1182.82 4.88 1182.04 4.272 1180.57 4.272H1178.14ZM1194.98 2.512V4.304H1191.28V14H1189.23V4.304H1185.54V2.512H1194.98ZM1200.21 9.552H1198.35V14H1196.31V2.512H1200.9C1203.54 2.512 1205.06 3.792 1205.06 6.032C1205.06 7.808 1204.11 8.992 1202.39 9.392L1205.35 14H1203.01L1200.21 9.552ZM1198.35 4.272V7.792H1200.79C1202.24 7.792 1203.04 7.168 1203.04 6.032C1203.04 4.88 1202.26 4.272 1200.79 4.272H1198.35ZM1205.75 14L1210.11 2.512H1212.43L1216.78 14H1214.71L1213.72 11.376H1208.76L1207.79 14H1205.75ZM1213.05 9.584L1211.23 4.784L1209.43 9.584H1213.05ZM1220.21 14H1217.89V11.68H1220.21V14ZM1224.3 14L1228.65 2.512H1230.97L1235.32 14H1233.26L1232.27 11.376H1227.31L1226.33 14H1224.3ZM1231.6 9.584L1229.77 4.784L1227.98 9.584H1231.6ZM1236.34 2.512H1238.26V14H1236.34V2.512ZM1240.27 2.512H1242.19V14H1240.27V2.512ZM1251.73 5.552C1251.91 5.552 1252.07 5.568 1252.28 5.584V7.504C1252.02 7.456 1251.83 7.456 1251.57 7.456C1250.29 7.456 1249.43 8.304 1249.43 9.584V14H1247.51V5.6H1249.43V6.848C1249.81 6.064 1250.69 5.552 1251.73 5.552ZM1255.55 4.48H1253.57V2.512H1255.55V4.48ZM1253.6 5.6H1255.52V14H1253.6V5.6ZM1265.01 5.6V13.152C1265.01 14.352 1264.64 15.296 1263.89 16C1263.16 16.704 1262.16 17.056 1260.92 17.056C1258.93 17.056 1257.6 16.208 1257.09 14.608L1258.88 13.968C1259.14 14.944 1259.89 15.504 1260.92 15.504C1262.32 15.504 1263.09 14.752 1263.09 13.328V12.736C1262.6 13.392 1261.7 13.792 1260.72 13.792C1259.62 13.792 1258.64 13.36 1257.99 12.528C1257.36 11.776 1257.04 10.752 1257.04 9.616C1257.04 8.48 1257.36 7.456 1257.99 6.704C1258.64 5.872 1259.62 5.44 1260.72 5.44C1261.7 5.44 1262.6 5.856 1263.09 6.496V5.6H1265.01ZM1263.12 9.728V9.536C1263.12 8.048 1262.32 7.12 1261.09 7.12C1259.76 7.12 1258.98 8.032 1258.98 9.616C1258.98 11.168 1259.76 12.112 1261.09 12.112C1262.32 12.112 1263.12 11.2 1263.12 9.728ZM1268.96 14H1267.04V2.512H1268.96V6.496C1269.55 5.808 1270.34 5.44 1271.28 5.44C1273.01 5.44 1274.1 6.624 1274.1 8.464V14H1272.18V9.024C1272.18 7.872 1271.66 7.232 1270.7 7.232C1269.73 7.232 1268.96 7.984 1268.96 9.072V14ZM1278.69 14.096C1276.92 14.096 1276.23 13.44 1276.23 11.888V7.232H1275.06V5.6H1276.23V3.136H1278.12V5.6H1279.88V7.232H1278.12V11.584C1278.12 12.176 1278.34 12.416 1279.24 12.416C1279.49 12.416 1279.65 12.416 1280.02 12.368V13.984C1279.64 14.048 1279.14 14.096 1278.69 14.096ZM1284.44 14.176C1282.79 14.176 1281.3 13.488 1280.58 12.4L1282.02 11.248C1282.52 12.064 1283.49 12.608 1284.45 12.608C1285.41 12.608 1286.02 12.224 1286.02 11.568C1286.02 11.168 1285.81 10.944 1285.22 10.768C1285.09 10.72 1284.68 10.64 1283.99 10.496C1282.9 10.256 1282.44 10.112 1282.04 9.856C1281.45 9.456 1281.14 8.88 1281.14 8.096C1281.14 7.312 1281.45 6.688 1282.05 6.192C1282.68 5.696 1283.46 5.44 1284.42 5.44C1285.85 5.44 1287.19 6.064 1287.81 7.024L1286.52 8.192C1286.02 7.44 1285.22 7.008 1284.31 7.008C1283.53 7.008 1283.01 7.36 1283.01 7.92C1283.01 8.256 1283.21 8.448 1283.65 8.624C1283.83 8.672 1283.97 8.72 1284.68 8.864C1285.37 9.008 1285.85 9.136 1286.12 9.232C1286.39 9.312 1286.61 9.408 1286.82 9.52C1287.54 9.92 1287.89 10.544 1287.89 11.392C1287.89 12.208 1287.56 12.864 1286.9 13.392C1286.25 13.92 1285.43 14.176 1284.44 14.176ZM1296.89 5.552C1297.06 5.552 1297.22 5.568 1297.43 5.584V7.504C1297.18 7.456 1296.98 7.456 1296.73 7.456C1295.45 7.456 1294.58 8.304 1294.58 9.584V14H1292.66V5.6H1294.58V6.848C1294.97 6.064 1295.85 5.552 1296.89 5.552ZM1301.9 14.176C1300.7 14.176 1299.66 13.728 1298.91 12.912C1298.21 12.128 1297.82 11.04 1297.82 9.808C1297.82 8.64 1298.21 7.536 1298.9 6.752C1299.65 5.904 1300.67 5.44 1301.82 5.44C1302.96 5.44 1303.87 5.824 1304.54 6.592C1305.22 7.344 1305.55 8.352 1305.55 9.584V10.224H1299.66C1299.81 11.648 1300.67 12.544 1301.9 12.544C1302.86 12.544 1303.6 12.032 1303.86 11.2L1305.5 11.824C1304.91 13.296 1303.57 14.176 1301.9 14.176ZM1301.81 7.056C1300.78 7.056 1300.03 7.68 1299.76 8.784H1303.62C1303.6 7.744 1302.91 7.056 1301.81 7.056ZM1309.97 14.176C1308.32 14.176 1306.83 13.488 1306.11 12.4L1307.55 11.248C1308.05 12.064 1309.02 12.608 1309.98 12.608C1310.94 12.608 1311.55 12.224 1311.55 11.568C1311.55 11.168 1311.34 10.944 1310.75 10.768C1310.62 10.72 1310.21 10.64 1309.52 10.496C1308.43 10.256 1307.97 10.112 1307.57 9.856C1306.98 9.456 1306.67 8.88 1306.67 8.096C1306.67 7.312 1306.98 6.688 1307.58 6.192C1308.21 5.696 1308.99 5.44 1309.95 5.44C1311.38 5.44 1312.72 6.064 1313.34 7.024L1312.05 8.192C1311.55 7.44 1310.75 7.008 1309.84 7.008C1309.06 7.008 1308.54 7.36 1308.54 7.92C1308.54 8.256 1308.74 8.448 1309.18 8.624C1309.36 8.672 1309.5 8.72 1310.21 8.864C1310.9 9.008 1311.38 9.136 1311.65 9.232C1311.92 9.312 1312.14 9.408 1312.35 9.52C1313.07 9.92 1313.42 10.544 1313.42 11.392C1313.42 12.208 1313.09 12.864 1312.43 13.392C1311.78 13.92 1310.96 14.176 1309.97 14.176ZM1318.45 14.176C1317.25 14.176 1316.21 13.728 1315.46 12.912C1314.75 12.128 1314.37 11.04 1314.37 9.808C1314.37 8.64 1314.75 7.536 1315.44 6.752C1316.19 5.904 1317.22 5.44 1318.37 5.44C1319.51 5.44 1320.42 5.824 1321.09 6.592C1321.76 7.344 1322.1 8.352 1322.1 9.584V10.224H1316.21C1316.35 11.648 1317.22 12.544 1318.45 12.544C1319.41 12.544 1320.15 12.032 1320.4 11.2L1322.05 11.824C1321.46 13.296 1320.11 14.176 1318.45 14.176ZM1318.35 7.056C1317.33 7.056 1316.58 7.68 1316.31 8.784H1320.16C1320.15 7.744 1319.46 7.056 1318.35 7.056ZM1327.76 5.552C1327.94 5.552 1328.1 5.568 1328.31 5.584V7.504C1328.05 7.456 1327.86 7.456 1327.6 7.456C1326.32 7.456 1325.46 8.304 1325.46 9.584V14H1323.54V5.6H1325.46V6.848C1325.84 6.064 1326.72 5.552 1327.76 5.552ZM1336.89 5.6L1333.82 14H1331.89L1328.81 5.6H1330.83L1332.88 11.696L1334.91 5.6H1336.89ZM1341.28 14.176C1340.08 14.176 1339.04 13.728 1338.29 12.912C1337.58 12.128 1337.2 11.04 1337.2 9.808C1337.2 8.64 1337.58 7.536 1338.27 6.752C1339.02 5.904 1340.05 5.44 1341.2 5.44C1342.33 5.44 1343.25 5.824 1343.92 6.592C1344.59 7.344 1344.93 8.352 1344.93 9.584V10.224H1339.04C1339.18 11.648 1340.05 12.544 1341.28 12.544C1342.24 12.544 1342.97 12.032 1343.23 11.2L1344.88 11.824C1344.29 13.296 1342.94 14.176 1341.28 14.176ZM1341.18 7.056C1340.16 7.056 1339.41 7.68 1339.13 8.784H1342.99C1342.97 7.744 1342.29 7.056 1341.18 7.056ZM1349.54 14.176C1348.4 14.176 1347.42 13.712 1346.77 12.832C1346.18 12.048 1345.84 10.976 1345.84 9.808C1345.84 8.64 1346.18 7.568 1346.77 6.784C1347.42 5.904 1348.4 5.44 1349.54 5.44C1350.54 5.44 1351.38 5.808 1351.95 6.496V2.512H1353.87V14H1351.95V13.12C1351.38 13.808 1350.54 14.176 1349.54 14.176ZM1352 10.064V9.568C1352 8.08 1351.18 7.12 1349.92 7.12C1348.58 7.12 1347.78 8.144 1347.78 9.808C1347.78 11.472 1348.58 12.496 1349.92 12.496C1351.15 12.496 1352 11.536 1352 10.064ZM1357.84 14H1355.52V11.68H1357.84V14Z" fill="black"/>
</svg>
