<svg width="1360" height="276" viewBox="0 0 1360 276" fill="none" xmlns="http://www.w3.org/2000/svg">
<path d="M95.2467 0H194.27L289.517 276H202.545L188.216 232.164H98.6344L84.3058 276H0L95.2467 0ZM143.453 96.4611L121.238 163.717H165.668L143.453 96.4611Z" fill="black"/>
<path d="M389.983 191.448V276H304.511V0H427.582C498.004 0 539.379 35.7263 539.379 95.7239C539.379 132.641 521.663 162.243 489.673 178.008L548.765 276H450.908L403.479 191.448H389.928H389.983ZM389.983 123.795H423.084C443.799 123.795 455.073 114.948 455.073 98.4459C455.073 81.9437 444.132 72.3033 423.084 72.3033H389.983V123.795Z" fill="black"/>
<path d="M799.183 73.0405H723.152V276H637.68V73.0405H561.65V0H799.183V73.0405Z" fill="black"/>
<path d="M1359.94 276H1275.64L1261.31 232.164H1171.73L1157.4 276H1070.43L1165.73 0H1264.75L1360 276H1359.94ZM1194.33 163.774H1238.76L1216.55 96.5178L1194.33 163.774Z" fill="black"/>
<path d="M956.41 191.448L908.981 276H811.124L870.216 178.008C838.226 162.243 820.51 132.641 820.51 95.7239C820.51 35.783 861.941 0 932.306 0H1055.38V276H969.905V191.448H956.354H956.41ZM969.961 72.3033H936.861C915.756 72.3033 904.871 81.5467 904.871 98.4459C904.871 115.345 916.145 123.795 936.861 123.795H969.961V72.3033Z" fill="black"/>
</svg>
