<svg width="1361" height="362" viewBox="0 0 1361 362" fill="none" xmlns="http://www.w3.org/2000/svg">
<rect x="1" y="1" width="90" height="90" stroke="black"/>
<rect x="91" y="1" width="90" height="90" stroke="black"/>
<rect x="181" y="1" width="90" height="90" stroke="black"/>
<rect x="271" y="1" width="90" height="90" stroke="black"/>
<g clip-path="url(#clip0_1_20)">
<circle cx="406" cy="46" r="45" stroke="black"/>
</g>
<rect x="361" y="1" width="90" height="90" stroke="black"/>
<g clip-path="url(#clip1_1_20)">
<circle cx="496" cy="46" r="45" stroke="black"/>
</g>
<rect x="451" y="1" width="90" height="90" stroke="black"/>
<rect x="541" y="1" width="90" height="90" stroke="black"/>
<rect x="631" y="1" width="90" height="90" stroke="black"/>
<rect x="721" y="1" width="90" height="90" stroke="black"/>
<rect x="811" y="1" width="90" height="90" stroke="black"/>
<rect x="901" y="1" width="90" height="90" stroke="black"/>
<rect x="991" y="1" width="90" height="90" stroke="black"/>
<g clip-path="url(#clip2_1_20)">
<line x1="1126.5" y1="1" x2="1126.5" y2="91" stroke="black"/>
<line x1="1171" y1="46.5" x2="1081" y2="46.5" stroke="black"/>
</g>
<rect x="1081" y="1" width="90" height="90" stroke="black"/>
<g clip-path="url(#clip3_1_20)">
<line x1="1216.5" y1="1" x2="1216.5" y2="91" stroke="black"/>
<line x1="1261" y1="46.5" x2="1171" y2="46.5" stroke="black"/>
</g>
<rect x="1171" y="1" width="90" height="90" stroke="black"/>
<g clip-path="url(#clip4_1_20)">
<line x1="1306.5" y1="1" x2="1306.5" y2="91" stroke="black"/>
<line x1="1351" y1="46.5" x2="1261" y2="46.5" stroke="black"/>
</g>
<rect x="1261" y="1" width="90" height="90" stroke="black"/>
<rect x="1" y="91" width="90" height="90" stroke="black"/>
<rect x="91" y="91" width="90" height="90" stroke="black"/>
<rect x="181" y="91" width="90" height="90" stroke="black"/>
<rect x="271" y="91" width="90" height="90" stroke="black"/>
<rect x="361" y="91" width="90" height="90" stroke="black"/>
<rect x="451" y="91" width="90" height="90" stroke="black"/>
<rect x="541" y="91" width="90" height="90" stroke="black"/>
<rect x="631" y="91" width="90" height="90" stroke="black"/>
<rect x="721" y="91" width="90" height="90" stroke="black"/>
<rect x="811" y="91" width="90" height="90" stroke="black"/>
<rect x="901" y="91" width="90" height="90" stroke="black"/>
<rect x="991" y="91" width="90" height="90" stroke="black"/>
<rect x="1081" y="91" width="90" height="90" stroke="black"/>
<g clip-path="url(#clip5_1_20)">
<line x1="1216.5" y1="91" x2="1216.5" y2="181" stroke="black"/>
<line x1="1261" y1="136.5" x2="1171" y2="136.5" stroke="black"/>
</g>
<rect x="1171" y="91" width="90" height="90" stroke="black"/>
<g clip-path="url(#clip6_1_20)">
<line x1="1306.5" y1="91" x2="1306.5" y2="181" stroke="black"/>
<line x1="1351" y1="136.5" x2="1261" y2="136.5" stroke="black"/>
</g>
<rect x="1261" y="91" width="90" height="90" stroke="black"/>
<g clip-path="url(#clip7_1_20)">
<line x1="46.5" y1="181" x2="46.5" y2="271" stroke="black"/>
<line x1="91" y1="226.5" x2="1" y2="226.5" stroke="black"/>
</g>
<rect x="1" y="181" width="90" height="90" stroke="black"/>
<rect x="91" y="181" width="90" height="90" stroke="black"/>
<rect x="181" y="181" width="90" height="90" stroke="black"/>
<rect x="271" y="181" width="90" height="90" stroke="black"/>
<rect x="361" y="181" width="90" height="90" stroke="black"/>
<rect x="451" y="181" width="90" height="90" stroke="black"/>
<rect x="541" y="181" width="90" height="90" stroke="black"/>
<rect x="631" y="181" width="90" height="90" stroke="black"/>
<rect x="721" y="181" width="90" height="90" stroke="black"/>
<rect x="811" y="181" width="90" height="90" stroke="black"/>
<rect x="901" y="181" width="90" height="90" stroke="black"/>
<rect x="991" y="181" width="90" height="90" stroke="black"/>
<rect x="1081" y="181" width="90" height="90" stroke="black"/>
<rect x="1171" y="181" width="90" height="90" stroke="black"/>
<rect x="1261" y="181" width="90" height="90" stroke="black"/>
<rect x="1" y="271" width="90" height="90" stroke="black"/>
<rect x="91" y="271" width="90" height="90" stroke="black"/>
<rect x="181" y="271" width="90" height="90" stroke="black"/>
<rect x="271" y="271" width="90" height="90" stroke="black"/>
<rect x="361" y="271" width="90" height="90" stroke="black"/>
<rect x="451" y="271" width="90" height="90" stroke="black"/>
<rect x="541" y="271" width="90" height="90" stroke="black"/>
<rect x="631" y="271" width="90" height="90" stroke="black"/>
<rect x="721" y="271" width="90" height="90" stroke="black"/>
<rect x="811" y="271" width="90" height="90" stroke="black"/>
<rect x="901" y="271" width="90" height="90" stroke="black"/>
<rect x="991" y="271" width="90" height="90" stroke="black"/>
<rect x="1081" y="271" width="90" height="90" stroke="black"/>
<g clip-path="url(#clip8_1_20)">
<ellipse cx="1261" cy="316" rx="90" ry="45" stroke="black"/>
</g>
<rect x="1171" y="271" width="90" height="90" stroke="black"/>
<g clip-path="url(#clip9_1_20)">
<ellipse cx="1261" cy="316" rx="90" ry="45" transform="rotate(-180 1261 316)" stroke="black"/>
</g>
<rect x="1351" y="361" width="90" height="90" transform="rotate(-180 1351 361)" stroke="black"/>
<defs>
<clipPath id="clip0_1_20">
<rect x="361" y="1" width="90" height="90" fill="white"/>
</clipPath>
<clipPath id="clip1_1_20">
<rect x="451" y="1" width="90" height="90" fill="white"/>
</clipPath>
<clipPath id="clip2_1_20">
<rect x="1081" y="1" width="90" height="90" fill="white"/>
</clipPath>
<clipPath id="clip3_1_20">
<rect x="1171" y="1" width="90" height="90" fill="white"/>
</clipPath>
<clipPath id="clip4_1_20">
<rect x="1261" y="1" width="90" height="90" fill="white"/>
</clipPath>
<clipPath id="clip5_1_20">
<rect x="1171" y="91" width="90" height="90" fill="white"/>
</clipPath>
<clipPath id="clip6_1_20">
<rect x="1261" y="91" width="90" height="90" fill="white"/>
</clipPath>
<clipPath id="clip7_1_20">
<rect x="1" y="181" width="90" height="90" fill="white"/>
</clipPath>
<clipPath id="clip8_1_20">
<rect x="1171" y="271" width="90" height="90" fill="white"/>
</clipPath>
<clipPath id="clip9_1_20">
<rect x="1351" y="361" width="90" height="90" transform="rotate(-180 1351 361)" fill="white"/>
</clipPath>
</defs>
</svg>
