<svg width="1440" height="205" viewBox="0 0 1440 205" fill="none" xmlns="http://www.w3.org/2000/svg">
<path d="M40.96 172.19L67.072 103.262H80.992L107.104 172.19H94.72L88.768 156.446H59.008L53.152 172.19H40.96ZM84.736 145.694L73.792 116.894L63.04 145.694H84.736ZM137.055 145.502H125.919V172.19H113.631V103.262H141.183C157.023 103.262 166.143 110.942 166.143 124.382C166.143 135.038 160.479 142.142 150.111 144.542L167.871 172.19H153.855L137.055 145.502ZM125.919 113.822V134.942H140.511C149.247 134.942 154.047 131.198 154.047 124.382C154.047 117.47 149.343 113.822 140.511 113.822H125.919ZM226.004 103.262V114.014H203.828V172.19H191.54V114.014H169.364V103.262H226.004ZM253.183 153.854L265.951 103.262H276.799L289.663 153.854L302.719 103.262H315.007L296.383 172.19H284.287L271.231 123.614L258.271 172.19H246.175L227.455 103.262H240.127L253.183 153.854ZM323.959 162.686C318.487 156.254 315.511 147.614 315.511 137.726C315.511 127.838 318.487 119.198 323.959 112.766C329.815 105.95 338.071 102.206 347.575 102.206C357.079 102.206 365.335 105.95 371.191 112.766C376.663 119.198 379.639 127.838 379.639 137.726C379.639 147.614 376.663 156.254 371.191 162.686C365.335 169.502 357.079 173.246 347.575 173.246C338.071 173.246 329.815 169.502 323.959 162.686ZM347.575 162.398C353.431 162.398 358.231 160.094 361.879 155.582C365.527 151.07 367.351 145.118 367.351 137.726C367.351 130.334 365.527 124.382 361.879 119.87C358.231 115.358 353.431 113.054 347.575 113.054C341.719 113.054 336.919 115.358 333.271 119.87C329.623 124.382 327.799 130.334 327.799 137.726C327.799 145.118 329.623 151.07 333.271 155.582C336.919 160.094 341.719 162.398 347.575 162.398ZM411.652 145.502H400.516V172.19H388.228V103.262H415.78C431.62 103.262 440.74 110.942 440.74 124.382C440.74 135.038 435.076 142.142 424.708 144.542L442.468 172.19H428.452L411.652 145.502ZM400.516 113.822V134.942H415.108C423.844 134.942 428.644 131.198 428.644 124.382C428.644 117.47 423.94 113.822 415.108 113.822H400.516ZM449.987 103.262H462.275V135.902L490.883 103.262H505.379L478.595 133.118L506.915 172.19H492.419L470.627 142.142L462.275 151.358V172.19H449.987V103.262ZM533.071 173.246C527.023 173.246 521.359 171.902 516.079 169.31C510.799 166.622 506.767 163.07 504.175 158.75L513.583 150.974C518.479 158.558 525.679 162.782 533.455 162.782C541.807 162.782 547.087 158.846 547.087 152.606C547.087 149.918 546.031 147.998 543.727 146.558C542.191 145.502 540.175 144.734 536.815 143.87L532.975 143.006C531.343 142.526 530.191 142.238 529.615 142.142C521.551 140.222 517.903 138.686 514.831 136.67C510.319 133.598 508.111 129.182 508.111 123.134C508.111 116.702 510.799 111.326 515.887 107.486C520.207 104.03 526.351 102.206 532.975 102.206C543.823 102.206 553.615 107.198 558.607 114.974L549.583 122.75C545.071 115.838 539.791 112.67 532.591 112.67C525.199 112.67 520.111 116.414 520.111 121.886C520.111 125.246 521.647 127.262 525.487 128.798C527.119 129.47 529.039 130.046 534.703 131.294C539.887 132.446 543.535 133.406 545.647 134.174C547.855 134.942 549.679 135.806 551.215 136.766C556.591 139.934 559.183 144.734 559.183 151.358C559.183 157.982 556.303 163.646 551.023 167.774C546.319 171.23 539.983 173.246 533.071 173.246Z" fill="black"/>
<path d="M1299.81 130.19C1299.81 102.576 1277.42 80.19 1249.81 80.19C1222.2 80.19 1199.81 102.576 1199.81 130.19C1199.81 157.804 1222.2 180.19 1249.81 180.19C1277.42 180.19 1299.81 157.804 1299.81 130.19Z" stroke="black" stroke-width="2" stroke-miterlimit="10"/>
<g clip-path="url(#clip0_790_1876)">
<path d="M1399 179.19L1300.52 80.71" stroke="black" stroke-width="2" stroke-miterlimit="10"/>
<path d="M1399 80.71V179.19H1300.52" stroke="black" stroke-width="2" stroke-miterlimit="10"/>
</g>
<defs>
<clipPath id="clip0_790_1876">
<rect width="100.19" height="100.19" fill="white" transform="translate(1299.81 80)"/>
</clipPath>
</defs>
</svg>
