<svg width="1440" height="205" viewBox="0 0 1440 205" fill="none" xmlns="http://www.w3.org/2000/svg">
<path d="M40.96 172.19L67.072 103.262H80.992L107.104 172.19H94.72L88.768 156.446H59.008L53.152 172.19H40.96ZM84.736 145.694L73.792 116.894L63.04 145.694H84.736ZM137.055 145.502H125.919V172.19H113.631V103.262H141.183C157.023 103.262 166.143 110.942 166.143 124.382C166.143 135.038 160.479 142.142 150.111 144.542L167.871 172.19H153.855L137.055 145.502ZM125.919 113.822V134.942H140.511C149.247 134.942 154.047 131.198 154.047 124.382C154.047 117.47 149.343 113.822 140.511 113.822H125.919ZM226.004 103.262V114.014H203.828V172.19H191.54V114.014H169.364V103.262H226.004ZM233.023 103.262H245.311V172.19H233.023V103.262ZM279.264 173.246C273.216 173.246 267.552 171.902 262.272 169.31C256.992 166.622 252.96 163.07 250.368 158.75L259.776 150.974C264.672 158.558 271.872 162.782 279.648 162.782C288 162.782 293.28 158.846 293.28 152.606C293.28 149.918 292.224 147.998 289.92 146.558C288.384 145.502 286.368 144.734 283.008 143.87L279.168 143.006C277.536 142.526 276.384 142.238 275.808 142.142C267.744 140.222 264.096 138.686 261.024 136.67C256.512 133.598 254.304 129.182 254.304 123.134C254.304 116.702 256.992 111.326 262.08 107.486C266.4 104.03 272.544 102.206 279.168 102.206C290.016 102.206 299.808 107.198 304.8 114.974L295.776 122.75C291.264 115.838 285.984 112.67 278.784 112.67C271.392 112.67 266.304 116.414 266.304 121.886C266.304 125.246 267.84 127.262 271.68 128.798C273.312 129.47 275.232 130.046 280.896 131.294C286.08 132.446 289.728 133.406 291.84 134.174C294.048 134.942 295.872 135.806 297.408 136.766C302.784 139.934 305.376 144.734 305.376 151.358C305.376 157.982 302.496 163.646 297.216 167.774C292.512 171.23 286.176 173.246 279.264 173.246ZM363.186 103.262V114.014H341.01V172.19H328.722V114.014H306.546V103.262H363.186ZM389.656 173.246C383.608 173.246 377.944 171.902 372.664 169.31C367.384 166.622 363.352 163.07 360.76 158.75L370.168 150.974C375.064 158.558 382.264 162.782 390.04 162.782C398.392 162.782 403.672 158.846 403.672 152.606C403.672 149.918 402.616 147.998 400.312 146.558C398.776 145.502 396.76 144.734 393.4 143.87L389.56 143.006C387.928 142.526 386.776 142.238 386.2 142.142C378.136 140.222 374.488 138.686 371.416 136.67C366.904 133.598 364.696 129.182 364.696 123.134C364.696 116.702 367.384 111.326 372.472 107.486C376.792 104.03 382.936 102.206 389.56 102.206C400.408 102.206 410.2 107.198 415.192 114.974L406.168 122.75C401.656 115.838 396.376 112.67 389.176 112.67C381.784 112.67 376.696 116.414 376.696 121.886C376.696 125.246 378.232 127.262 382.072 128.798C383.704 129.47 385.624 130.046 391.288 131.294C396.472 132.446 400.12 133.406 402.232 134.174C404.44 134.942 406.264 135.806 407.8 136.766C413.176 139.934 415.768 144.734 415.768 151.358C415.768 157.982 412.888 163.646 407.608 167.774C402.904 171.23 396.568 173.246 389.656 173.246Z" fill="black"/>
<path d="M1299.81 130.19C1299.81 102.576 1277.42 80.19 1249.81 80.19C1222.2 80.19 1199.81 102.576 1199.81 130.19C1199.81 157.804 1222.2 180.19 1249.81 180.19C1277.42 180.19 1299.81 157.804 1299.81 130.19Z" stroke="black" stroke-width="2" stroke-miterlimit="10"/>
<g clip-path="url(#clip0_790_3051)">
<path d="M1399 179.19L1300.52 80.71" stroke="black" stroke-width="2" stroke-miterlimit="10"/>
<path d="M1399 80.71V179.19H1300.52" stroke="black" stroke-width="2" stroke-miterlimit="10"/>
</g>
<defs>
<clipPath id="clip0_790_3051">
<rect width="100.19" height="100.19" fill="white" transform="translate(1299.81 80)"/>
</clipPath>
</defs>
</svg>
